<svg width="179" height="125" viewBox="0 0 179 125" fill="none" xmlns="http://www.w3.org/2000/svg">
<path d="M82.8023 74.916C83.4433 75.2949 83.4217 74.3338 83.8619 74.1421C83.2024 72.3676 82.3937 71.9989 80.4221 72.6236C80.3446 73.7837 80.2543 74.9716 80.2041 76.1595C80.1969 76.3146 80.3676 76.5238 80.511 76.6277C80.6931 76.7594 80.9311 76.8076 81.1447 76.8925C81.1447 76.9744 81.1433 77.0549 81.1433 77.1368C80.8278 77.1777 80.5124 77.2187 80.1052 77.2714C79.784 81.8197 79.4528 86.4909 79.123 91.1621C79.0857 91.1635 79.0498 91.1635 79.0126 91.165C78.9853 90.5505 78.9409 89.9376 78.9351 89.3231C78.8978 85.3015 78.862 81.2784 78.8477 77.2567C78.8462 76.7345 78.7458 76.398 78.016 76.4038C77.8999 77.1222 77.6805 77.8712 77.6719 78.6217C77.6289 82.7896 77.5901 86.9605 77.6489 91.1284C77.6719 92.7947 77.4238 94.3557 76.823 95.8961C76.6008 96.4652 76.4817 97.1236 76.5004 97.7365C76.5778 100.186 76.7312 102.633 76.846 105.082C76.8589 105.347 76.8574 105.629 76.7786 105.876C76.3111 107.336 76.3498 108.842 76.2882 110.352C76.1247 114.293 75.8666 118.229 75.6358 122.168C75.5798 123.113 75.4866 124.056 75.3461 125C75.1841 122.974 75.0235 120.948 74.8586 118.921C74.8371 118.655 74.8471 118.366 74.7439 118.133C74.275 117.074 74.3166 115.959 74.3166 114.838C74.318 111.279 74.3008 107.72 74.2807 104.16C74.2793 103.809 74.209 103.458 74.1703 103.107C74.1115 103.11 74.0513 103.113 73.9925 103.116C73.8821 105.939 73.7717 108.763 73.6613 111.588C73.6384 111.589 73.6154 111.591 73.5925 111.592C73.4419 109.406 73.2311 107.224 73.1537 105.035C73.0046 100.872 72.9472 96.7052 72.8139 92.5416C72.7909 91.8204 72.6246 91.0948 72.4454 90.3911C71.9535 88.4673 72.1643 86.5128 72.16 84.5715C72.1572 83.3148 72.0726 82.0991 71.6022 80.9273C71.1334 79.7598 70.9885 78.5427 71.0445 77.2802C71.0932 76.1859 71.0301 75.0857 71.066 73.99C71.0817 73.5014 70.8925 73.2687 70.4566 73.1737C70.2945 73.1385 70.0938 73.1268 69.9834 73.0244C69.0141 72.1262 67.8842 71.7751 66.5908 71.5103C65.4007 71.2674 64.3411 70.3824 63.2097 69.8074C62.7222 69.5587 62.1859 69.4095 61.6998 69.1593C61.3313 68.9706 61.0073 68.6956 60.6932 68.4205C62.4325 69.2442 64.3124 69.4241 66.1535 69.7299C66.6195 69.8074 67.2016 69.7518 66.9048 68.9414C66.879 68.8697 66.9306 68.7526 66.9722 68.6707C67.3092 68.0241 67.4253 67.4887 66.4345 67.4506C66.3729 67.4477 66.2768 67.3936 66.261 67.3438C65.9241 66.2393 64.8788 66.4353 64.1131 66.1266C63.6298 65.9321 63.1308 65.7829 62.6419 65.6014C61.7773 65.2796 60.9686 65.6497 60.5613 66.4807C59.6996 66.112 58.8421 65.7624 58.0019 65.3762C57.5559 65.1713 57.1573 65.1026 56.7429 65.4435C56.3457 65.7697 56.0145 65.6951 55.6101 65.344C55.3191 65.0909 54.8588 65.0207 54.4602 64.9241C54.0931 64.8349 53.7074 64.8188 53.3575 64.7749C52.8011 67.1961 52.1444 69.5909 52.1917 72.1189C52.2118 73.2146 51.9867 74.3162 51.8734 75.4149C51.7946 75.409 51.7171 75.4017 51.6383 75.3959C51.6383 71.8146 51.6383 68.2333 51.6383 64.652C51.578 64.6418 51.5164 64.6301 51.4562 64.6198C51.4131 64.7734 51.3343 64.9256 51.3343 65.0792C51.3386 69.8572 51.2898 74.6381 51.3988 79.4146C51.4289 80.7532 51.4418 82.004 50.9127 83.2534C50.7263 83.6922 50.7822 84.2555 50.7894 84.7617C50.8095 86.1675 50.9471 87.5764 50.8883 88.9764C50.6876 93.7003 50.4223 98.4197 50.1814 103.141C50.1757 103.261 50.1513 103.379 50.0008 103.501C49.9147 99.6603 49.8301 95.8201 49.7441 91.9798C49.6824 91.9813 49.6222 91.9813 49.5606 91.9828C49.4903 93.7427 49.41 95.5012 49.3541 97.2611C49.2996 98.9932 49.1878 100.706 48.673 102.381C48.4923 102.969 48.4809 103.626 48.468 104.252C48.4307 105.933 48.4636 107.617 48.402 109.297C48.3848 109.787 48.2098 110.299 47.9976 110.747C47.4126 111.978 47.5746 113.251 47.6707 114.537C47.7123 115.087 47.675 115.647 47.6306 116.199C47.4829 118.044 47.3165 119.888 47.1516 121.732C47.1373 121.89 47.0756 122.045 46.9839 122.405C46.8118 119.717 46.6641 117.246 46.4878 114.777C46.4361 114.051 46.3687 113.315 46.1952 112.613C45.6289 110.333 45.8325 108.012 45.7823 105.705C45.7708 105.151 45.6762 104.596 45.6145 104.043C45.5299 103.274 45.3607 102.503 45.3693 101.735C45.408 98.5865 45.3206 95.4558 44.7972 92.3397C44.6208 91.2952 44.7026 90.2009 44.6968 89.13C44.6839 87.1068 44.7112 85.082 44.6825 83.0588C44.6725 82.3829 44.5405 81.71 44.4731 81.0355C44.4086 80.386 44.3212 79.735 44.3011 79.0825C44.248 77.3314 44.2308 75.5787 44.1835 73.8276C44.1778 73.6038 44.0803 73.3829 43.8623 73.1766C43.5655 78.9625 43.2687 84.747 42.9719 90.533C42.9131 90.5345 42.8543 90.5345 42.7955 90.5359C42.7955 89.2076 42.807 87.8777 42.7941 86.5494C42.7367 80.5045 42.6722 74.4596 42.6105 68.4162C42.6091 68.3181 42.6535 68.1909 42.6077 68.128C41.7316 66.8976 42.3195 65.4947 42.1589 64.1824C42.1244 63.8986 42.1531 63.6075 42.1531 63.1978C40.5113 63.4626 39.1219 62.8613 37.7038 62.2615C37.0456 61.9836 36.2498 62.0465 35.5157 61.9558C35.3264 61.9324 35.0712 61.9865 34.9565 61.8797C34.1506 61.1351 33.0996 61.4101 32.1977 61.1234C31.4779 60.8951 30.7423 60.4943 30.1945 59.9735C28.5585 58.4184 26.7589 57.2846 24.4762 57.1017C23.6116 57.033 22.9262 56.6628 22.2838 56.0294C21.3575 55.1136 20.1846 54.7478 18.8683 54.919C18.55 54.96 18.1915 54.9293 17.8932 54.8181C16.8221 54.4201 15.7668 53.9754 14.7071 53.5424C14.1752 53.3259 13.6948 52.8416 13.0467 53.2615C12.9664 53.3142 12.7456 53.2439 12.6552 53.1591C11.9182 52.4554 11.2357 51.7342 11.1654 50.5975C11.1411 50.2069 10.9633 49.7358 10.6937 49.4725C10.0943 48.8873 9.81473 48.2392 9.8434 47.3995C9.87065 46.5963 9.81186 45.7917 9.82046 44.9871C9.83767 43.4568 10.513 42.402 11.7935 41.517C13.1686 40.5675 14.5738 40.8323 15.9991 40.9113C16.7977 40.9552 17.5835 41.2112 18.3808 41.3209C18.8009 41.378 19.2368 41.356 19.6612 41.3195C21.0621 41.1995 22.5046 41.1424 23.656 42.0553C24.8017 42.9624 26.0635 43.2052 27.4257 43.3486C27.8587 43.3939 28.3921 43.628 28.6531 43.9615C29.1621 44.6126 29.8217 44.8656 30.543 45.0441C31.5854 45.3001 32.6293 45.5737 33.6875 45.7434C34.7901 45.9204 35.9602 46.2467 37.0083 46.036C38.5182 45.7317 39.9908 46.0726 41.6355 45.8107C41.5064 44.6272 41.5595 43.3032 41.1867 42.1182C40.7006 40.5748 40.5156 39.1265 41.0476 37.5831C41.6427 35.8539 41.6298 34.0515 41.6125 32.2448C41.5996 30.9677 41.928 29.6539 41.7287 28.4192C41.4448 26.6476 41.799 25.1115 42.579 23.5827C42.7338 23.2784 42.7037 22.8688 42.7324 22.5045C42.8457 21.0591 43.4479 20.4315 44.8187 19.978C46.1752 19.5289 47.4986 19.0242 48.934 18.8427C49.6194 18.7564 50.3721 18.4975 50.4223 17.5027C50.5901 18.0367 50.7579 18.5721 50.9514 19.188C51.8433 18.3878 51.9939 19.4923 52.4714 19.7527C53.26 18.6774 53.6084 17.4939 53.6385 16.1934C53.65 15.715 53.7518 15.238 53.8751 14.767C54.106 17.3564 54.3368 19.9458 54.5677 22.5352C54.6494 22.5352 54.7312 22.5367 54.8129 22.5367C54.8731 22.2748 54.9333 22.013 54.9921 21.7496C55.0954 23.4832 55.8137 25.0018 56.4633 26.5656C56.8777 27.5604 56.5508 28.7089 55.9743 29.5296C55.2015 30.6312 55.1054 31.7284 55.2703 32.9748C55.3262 33.3961 55.1728 33.8453 55.1083 34.2812C55.0739 34.5168 54.9878 34.7508 54.9878 34.9864C54.9907 37.6928 55.071 40.4007 54.9821 43.1028C54.9462 44.1751 54.5505 45.2372 54.2996 46.3008C54.1045 47.1274 53.8823 47.9481 53.6586 48.8171C57.9474 49.689 62.3035 50.0474 66.5793 51.4943C66.5793 51.5235 66.5578 51.7313 66.5865 51.9317C66.6123 52.1131 66.6381 52.3662 66.7571 52.4496C67.2619 52.8021 67.7838 53.1401 68.333 53.4151C69.0155 53.7574 69.4873 53.4034 69.4514 52.6339C69.3095 49.5178 69.1689 46.4017 69.0356 43.2857C69.027 43.0721 69.0385 42.8395 69.1116 42.6434C69.7267 41.0225 69.6808 39.3708 69.0628 37.8084C68.2168 35.6681 67.8139 33.4956 67.9587 31.1915C68.0333 30.0021 67.9716 28.8025 67.9516 27.6087C67.9473 27.3395 67.8598 27.0704 67.8111 26.8012C67.7408 26.8041 67.6705 26.8085 67.6017 26.8114C67.6017 27.7682 67.6017 28.725 67.6017 29.6832C67.5243 29.6861 67.4468 29.689 67.368 29.692C67.292 28.7601 67.2103 27.8282 67.1443 26.8948C67.1013 26.2877 67.1343 25.6689 67.0324 25.072C66.9378 24.5146 66.674 23.9879 66.5521 23.4335C66.3872 22.683 66.1793 21.9179 66.1836 21.1601C66.1922 19.5084 66.3169 17.8582 66.4087 16.208C66.4173 16.0588 66.4962 15.8978 66.5836 15.772C67.0023 15.1664 67.52 14.6134 67.8426 13.9594C68.2699 13.0904 68.799 12.3487 69.5331 11.7328C70.0307 11.3159 70.5039 10.8624 70.947 10.3869C71.5693 9.71982 72.2905 9.26191 73.1379 8.93275C73.6957 8.71624 74.1718 8.2832 74.7597 7.89845C74.7525 7.89406 74.8729 7.9716 75.045 8.08278C75.2443 7.50199 75.3963 6.96509 75.6142 6.45891C75.739 6.17071 75.9914 5.94249 76.1505 5.66453C76.2753 5.44801 76.3957 5.20516 76.4273 4.96231C76.6423 3.30626 76.8345 1.64728 77.1012 0C77.2431 2.35681 77.3851 4.71508 77.527 7.07188C77.626 7.07481 77.7249 7.07627 77.8239 7.0792C77.9429 6.36382 78.0619 5.64697 78.1809 4.93159C78.2311 4.9272 78.2813 4.92282 78.3315 4.91843C78.5021 6.39893 78.6742 7.87943 78.8448 9.35993C78.915 9.36139 78.9853 9.36286 79.0541 9.36432C79.3237 7.88967 79.5933 6.41356 79.8514 4.99889C79.9446 5.96151 79.936 7.02507 80.174 8.02865C80.4307 9.10392 80.5755 10.207 81.2365 11.2062C81.7771 12.0254 82.0079 13.1007 82.2115 14.097C82.4051 15.042 82.4768 16.0354 82.441 17.0009C82.3535 19.3884 82.1499 21.773 82.0395 24.1606C81.985 25.3426 82.0796 26.5305 82.0251 27.7126C81.8516 31.5075 81.6409 35.2994 81.4444 39.0929C81.3856 39.0929 81.3268 39.0914 81.2695 39.0914C81.2695 36.1436 81.2695 33.1957 81.2695 30.2493C81.1777 30.2391 81.0859 30.2289 80.9927 30.2186C80.8795 30.9867 80.6759 31.7518 80.6658 32.5213C80.6285 35.6418 80.65 38.7622 80.6515 41.8842C80.6515 42.0539 80.6415 42.2353 80.6945 42.3918C81.5993 45.0178 81.2164 47.7476 81.301 50.4351C81.3598 52.2842 81.3125 54.1363 81.3125 56.1186C82.6059 55.5583 83.5709 56.4946 84.685 56.7243C84.9904 56.7872 85.2514 57.0608 85.5425 57.2188C86.1017 57.5231 86.6681 57.8142 87.233 58.1082C87.3362 58.1624 87.4911 58.1653 87.5528 58.2472C88.2554 59.1806 89.3638 59.1499 90.3216 59.4073C91.4372 59.7072 92.3893 60.1871 93.0159 61.179C93.8719 62.5337 95.0979 62.7472 96.6063 62.462C96.6063 62.2381 96.6063 62.0011 96.6063 61.7641C96.6063 58.6671 96.6694 55.5686 96.5719 52.4759C96.5361 51.3567 96.0987 50.2537 95.8765 49.1374C95.7546 48.5215 95.6341 47.8939 95.6255 47.2707C95.5954 45.126 95.5997 42.9799 95.627 40.8338C95.6313 40.4388 95.7273 40.0028 95.9137 39.6605C96.3554 38.8515 96.5662 38.0322 96.5317 37.0915C96.4701 35.4604 96.5633 33.8233 96.4959 32.1921C96.4443 30.9252 96.2478 29.6642 96.1159 28.4002C96.0557 28.3958 95.9969 28.3929 95.9367 28.3885C95.8507 30.9267 95.766 33.4634 95.68 36.0017C95.6456 36.0002 95.6098 35.9987 95.5753 35.9973C95.4578 33.7853 95.3359 31.5718 95.2212 29.3599C95.1552 28.0944 95.2384 26.8012 95.0047 25.5708C94.7466 24.2205 94.3795 22.9492 94.8455 21.5492C95.0161 21.0372 94.7537 20.3496 94.6146 19.7615C94.4268 18.9598 94.6189 18.2342 94.8527 17.4822C95.0749 16.7683 95.2929 16.0237 95.3259 15.2849C95.3646 14.3925 95.6843 13.7034 96.2679 13.0831C96.7669 12.5535 97.1469 11.9815 97.1999 11.1842C97.2315 10.7117 97.5326 10.2596 97.6946 9.7915C97.795 9.5033 97.914 9.20486 97.9341 8.90496C98.0517 7.15673 98.1434 5.40705 98.3298 3.65737C98.4087 4.797 98.413 5.9498 98.5879 7.07335C98.7657 8.21152 99.1127 9.3219 99.3852 10.4454C99.4655 10.4571 99.5472 10.4703 99.6275 10.482C99.8799 9.43893 100.132 8.39439 100.354 7.48005C100.515 8.02865 100.707 8.71331 100.917 9.39212C101.024 9.74322 101.233 9.87489 101.625 9.79443C101.849 9.74908 102.118 9.86172 102.35 9.9495C102.594 10.0417 102.818 10.1909 103.05 10.3138C104.206 10.9311 104.206 10.9311 104.794 9.73591C104.98 11.2164 105.951 12.0913 106.768 13.149C108.044 14.7992 108.903 16.7888 107.968 18.9803C107.161 20.8733 106.827 22.8132 106.853 24.873C106.873 26.5013 106.596 28.1339 106.631 29.7607C106.654 30.8872 106.985 32.0078 107.17 33.1328C107.229 33.4912 107.303 33.8555 107.294 34.2154C107.178 39.4542 107.055 44.6916 106.92 49.9304C106.87 51.879 106.794 53.8277 106.709 55.7748C106.688 56.2752 106.592 56.7726 106.371 57.2597C106.371 52.4744 106.371 47.6891 106.371 42.9038C106.282 42.8921 106.192 42.879 106.101 42.8673C105.908 44.0274 105.564 45.1846 105.548 46.3476C105.483 50.8813 105.551 55.4179 105.506 59.9515C105.491 61.6252 105.309 63.2988 105.182 64.9695C105.145 65.4727 105.35 65.6819 105.78 65.954C107.306 66.921 108.918 67.1668 110.656 66.8801C111.483 66.744 112.058 67.0512 112.434 67.8763C112.563 68.1616 113.044 68.4425 113.367 68.444C114.223 68.4483 115.029 68.5434 115.782 68.9794C115.905 69.0511 116.048 69.1345 116.18 69.1301C117.801 69.0818 119.042 70.0415 120.374 70.7583C120.437 70.792 120.503 70.8242 120.572 70.8417C120.615 70.8534 120.664 70.8359 120.65 70.8373C120.65 68.9852 120.64 67.1405 120.653 65.2957C120.673 62.2747 120.737 59.2537 120.716 56.2327C120.71 55.4369 120.458 54.641 120.32 53.8467C120.241 53.8525 120.161 53.8569 120.082 53.8628C119.954 55.2453 119.827 56.6263 119.699 58.0088C119.666 58.0161 119.633 58.0234 119.6 58.0307C119.415 56.8574 119.272 55.6768 119.035 54.5138C118.337 51.0612 118.685 47.5677 118.606 44.0903C118.602 43.8986 118.634 43.6997 118.687 43.5153C119.392 41.0474 119.384 38.553 118.789 36.0836C118.226 33.7458 118.644 31.506 119.183 29.2545C119.214 29.12 119.275 28.9429 119.376 28.8844C120.513 28.2349 120.719 26.9972 121.199 25.9322C121.256 25.8035 121.319 25.6776 121.402 25.5021C121.514 25.7888 121.606 26.0229 121.698 26.257C121.745 26.254 121.792 26.2497 121.84 26.2467C121.982 24.6243 122.124 23.0004 122.266 21.378C122.314 21.3766 122.362 21.3736 122.41 21.3722C122.57 22.3772 122.73 23.3823 122.889 24.3873C122.917 24.5556 122.885 24.7721 122.977 24.8833C123.192 25.1393 123.464 25.3426 123.714 25.5665C123.853 25.3148 124.092 25.072 124.115 24.8101C124.266 23.1365 124.368 21.4585 124.493 19.782C124.524 19.3504 124.584 18.9203 124.706 18.4931C124.824 20.3525 124.943 22.2105 125.06 24.0699C125.129 24.0713 125.199 24.0728 125.268 24.0742C125.305 23.5622 125.341 23.0487 125.379 22.5367C125.399 22.5352 125.417 22.5352 125.436 22.5338C125.505 23.4335 125.574 24.3332 125.638 25.189C126.289 25.5065 126.919 25.8093 127.542 26.1209C127.884 26.2921 128.201 26.5437 128.559 26.6476C129.98 27.0645 130.585 28.2085 131.117 29.4637C131.744 30.9399 131.986 32.4189 131.9 34.0618C131.841 35.1751 131.913 36.2386 131.395 37.2612C131.324 37.4032 131.417 37.7089 131.533 37.8596C132.19 38.711 132.184 39.6605 132.129 40.6875C131.921 44.6301 131.79 48.5757 131.619 52.5198C131.483 55.6519 131.331 58.7841 131.13 61.9134C131.024 57.2656 130.919 52.6163 130.813 47.9686C130.757 47.9612 130.703 47.9525 130.647 47.9451C130.599 48.1792 130.519 48.4133 130.509 48.6488C130.48 49.3306 130.443 50.0138 130.476 50.694C130.543 52.0546 130.338 53.3449 129.785 54.5972C129.589 55.0434 129.518 55.5817 129.514 56.0777C129.484 59.4907 129.455 62.9038 129.494 66.3168C129.507 67.4638 129.369 68.5434 128.864 69.5646C128.446 70.4116 128.282 71.3011 128.347 72.2476C128.387 72.8372 128.788 73.1927 129.379 73.0873C130.771 72.8386 132.068 73.0098 133.279 73.8364C133.697 74.1216 134.249 74.2197 134.752 74.3513C135.483 74.5415 136.223 74.7244 136.97 74.8239C137.231 74.859 137.539 74.6644 137.8 74.5254C138.07 74.3821 138.417 73.9754 138.539 74.0426C138.833 74.205 139.197 74.5722 139.207 74.8678C139.234 75.6753 139.664 76.0045 140.325 75.9928C142.096 75.9606 143.633 76.8735 145.314 77.1924C146.392 77.3972 147.469 77.6196 148.536 77.8741C149.178 78.0277 149.779 78.2164 150.249 78.8177C150.497 79.1337 151.108 79.1556 151.554 79.3093C152.403 79.6033 153.289 79.8184 154.091 80.2119C155.256 80.7839 156.422 81.1584 157.737 81.0648C158.186 81.0326 158.724 81.1379 159.096 81.3793C160.156 82.0684 161.303 82.3858 162.529 82.5175C162.845 82.5512 163.149 82.6799 163.458 82.7647C163.457 82.8437 163.455 82.9227 163.454 83.0003C163.083 83.0354 162.701 83.1422 162.341 83.0924C161.402 82.9652 160.477 82.7194 159.535 82.6301C159.23 82.6009 158.818 82.8394 158.583 83.0837C157.886 83.8064 157.506 83.8985 156.643 83.3909C156.623 83.3792 156.603 83.3616 156.58 83.3572C154.459 82.8613 152.696 81.2345 150.38 81.334C150.135 81.3442 149.877 81.1277 149.628 81.0063C149.378 80.8834 149.137 80.7371 148.884 80.6201C148.671 80.522 148.36 80.5177 148.239 80.3567C147.719 79.6618 147.04 79.7218 146.3 79.7496C145.865 79.7657 145.421 79.5112 144.977 79.397C143.9 79.122 142.826 78.8236 141.738 78.6012C140.618 78.3715 139.469 78.2779 138.36 78.0145C137.552 77.8244 136.843 78.0175 136.154 78.3408C135.976 78.4242 135.806 78.8865 135.875 79.0869C136.103 79.7408 136.56 80.2031 137.311 80.1856C137.716 80.1753 138.119 80.1095 138.523 80.0934C138.755 80.0846 139.125 80.0334 139.203 80.1548C139.878 81.2126 141.052 80.8585 141.967 81.157C143.936 81.7992 145.994 82.1532 147.988 82.7223C149.558 83.17 151.114 83.6059 152.764 83.5299C152.946 83.5211 153.146 83.5679 153.314 83.6425C154.357 84.0989 155.388 84.5876 156.439 85.0265C156.763 85.1625 157.143 85.2649 157.483 85.2313C158.676 85.1157 159.74 85.4463 160.777 86.011C161.122 86.1997 161.55 86.2831 161.946 86.3036C162.156 86.3138 162.377 86.0856 162.594 85.9657C162.45 85.7682 162.348 85.4814 162.158 85.3907C161.708 85.1757 161.21 85.0674 160.743 84.8875C160.502 84.7953 160.266 84.6666 160.063 84.5071C159.983 84.4442 159.995 84.2569 159.965 84.1253C160.096 84.1048 160.249 84.0258 160.351 84.0712C161.768 84.6885 163.173 85.3381 164.594 85.9467C165.135 86.1778 165.708 86.3343 166.27 86.5113C166.925 86.7176 167.581 86.9239 168.243 87.1009C168.673 87.215 169.115 87.2999 169.555 87.354C169.874 87.3935 170.2 87.3613 170.582 87.3613C170.438 87.9289 170.17 88.163 169.684 88.0387C169.293 87.9377 168.891 87.8412 168.529 87.6671C167.747 87.294 166.993 86.921 166.072 87.0497C165.755 87.0951 165.385 86.8829 165.064 86.7323C164.326 86.3841 163.617 86.3021 162.879 86.7469C162.029 87.2589 161.155 87.0395 160.328 86.6854C159.307 86.2495 158.309 85.7769 157.417 86.0534C156.996 85.736 156.759 85.5239 156.487 85.3863C156.444 85.3644 156.239 85.6745 156.176 85.8881C155.064 86.4835 154.732 86.4089 153.937 85.3878C153.646 85.0133 153.402 84.7617 152.819 84.8348C152.359 84.8919 151.848 84.5466 151.362 84.3725C150.378 84.0185 149.392 83.6703 148.415 83.2958C147.476 82.9359 147.313 83.0603 147.234 84.0434C147.199 84.4779 146.994 84.9153 146.785 85.3059C146.739 85.3922 146.348 85.2869 146.114 85.164C146.534 84.7309 147.235 84.5715 146.896 83.8283C146.807 83.6323 146.504 83.524 146.28 83.4128C146.174 83.3602 146.019 83.4158 145.898 83.3821C145.724 83.3353 145.561 83.2534 145.394 83.1861C145.366 83.4099 145.278 83.6454 145.32 83.8532C145.456 84.5247 145.196 85.003 144.593 85.0703C144.194 85.1157 143.919 85.0133 144.032 84.5086C144.085 84.2716 144.124 84.0316 144.16 83.7917C144.239 83.2724 144.036 82.9813 143.522 82.8379C142.902 82.6653 142.317 82.3463 141.692 82.2264C141.354 82.162 140.766 82.2688 140.647 82.4956C140.489 82.7955 140.645 83.2943 140.733 83.6922C140.769 83.8546 140.962 84.0068 141.118 84.1077C141.422 84.3038 141.68 84.4705 141.417 84.8962C141.167 85.2971 140.872 85.657 140.38 85.4375C139.27 84.9431 137.961 85.063 136.974 84.1077C136.612 83.7566 135.849 83.8503 135.277 83.704C134.974 83.6264 134.588 83.5503 134.419 83.3294C133.989 82.7735 133.44 82.5702 132.8 82.5365C132.181 82.5043 131.552 82.5658 130.939 82.4853C130.498 82.4283 129.957 82.5848 129.659 81.966C129.578 81.8007 129.062 81.8533 128.656 81.7933C128.702 82.2761 128.712 82.6331 128.773 82.9827C129.21 85.5122 128.857 88.0372 128.714 90.5608C128.479 94.7448 128.189 98.9259 127.921 103.108C127.859 104.08 127.793 105.053 127.674 106.026C127.542 101.277 127.41 96.5296 127.279 91.7809C127.201 91.7736 127.125 91.7677 127.049 91.7604C126.957 92.3383 126.791 92.9147 126.785 93.4925C126.759 96.0278 126.815 98.5646 126.761 101.098C126.742 101.953 126.619 102.855 126.315 103.644C125.605 105.489 125.693 107.426 125.501 109.329C125.201 112.307 124.974 115.293 124.637 118.278C124.533 116.585 124.399 114.894 124.329 113.2C124.124 108.185 123.948 103.17 123.751 98.1549C123.74 97.8667 123.685 97.5727 123.602 97.2962C123.08 95.5743 122.942 93.8129 123.04 92.0252C123.064 91.5658 123.08 91.0962 123.185 90.6529C123.711 88.4117 123.361 86.1368 123.463 83.8795C123.51 82.8467 123.419 81.8504 123.017 80.8805C122.826 80.4182 122.666 80.1139 122.102 80.2704C121.889 80.3289 121.636 80.2455 121.324 80.2192C121.324 81.3559 121.324 82.4663 121.324 83.5752C121.263 83.5781 121.202 83.5811 121.142 83.5825C121.096 82.519 121.05 81.4569 120.998 80.2631C120.363 80.6464 119.776 80.9214 119.279 81.315C118.176 82.1913 116.843 82.2103 115.568 82.4487C115.443 82.4722 115.207 82.3654 115.165 82.26C114.947 81.7129 114.478 81.6514 114.008 81.5403C112.869 81.274 111.748 80.8571 110.597 80.7459C109.583 80.6479 108.538 80.8819 107.505 80.9726C107.345 80.9873 107.184 81.0311 107.025 81.0282C106.494 81.018 105.952 80.9112 105.438 80.996C104.811 81.0999 104.252 81.2506 104.08 80.3084C104.004 80.3304 103.929 80.3523 103.853 80.3743C103.594 81.8636 103.149 83.3485 103.109 84.845C103.004 88.8169 103.047 92.7932 103.09 96.7666C103.102 97.8682 102.94 98.8835 102.447 99.8578C102.038 100.665 101.791 101.511 101.837 102.447C102.009 105.974 101.398 109.44 101 112.922C100.962 113.253 100.935 113.583 100.753 113.92C100.677 112.7 100.57 111.481 100.529 110.261C100.363 105.073 100.237 99.8856 100.043 94.6995C100.018 93.9943 99.6892 93.3023 99.5013 92.6031C99.421 92.6192 99.3422 92.6352 99.2619 92.6499C99.0511 95.9883 98.8403 99.3268 98.6295 102.665C98.6123 102.665 98.5951 102.667 98.5765 102.667C98.4618 100.85 98.3571 99.0312 98.228 97.2157C98.0531 94.7477 98.1463 92.249 97.2845 89.86C97.1225 89.4124 97.3519 88.8169 97.4035 88.2888C97.4881 87.4228 97.633 86.5567 97.6473 85.6892C97.6803 83.6176 97.6559 81.5446 97.6488 79.4716C97.6459 78.4915 96.5418 77.4264 95.627 77.2597C93.859 76.9393 92.2373 77.3606 90.6084 77.9751C90.0649 78.1799 89.4455 78.1682 88.8705 78.2984C88.578 78.3642 88.2769 78.4827 88.0346 78.6583C87.613 78.9625 87.2416 78.9859 86.8932 78.588C86.4272 78.057 85.9009 77.9692 85.2844 78.2896C85.161 78.354 84.9962 78.4066 84.87 78.3759C84.6047 78.3115 84.3409 78.2106 84.1057 78.0745C84.0613 78.0482 84.1028 77.6869 84.1817 77.6488C84.4627 77.5172 84.7882 77.3577 85.0736 77.3943C85.6873 77.4703 86.3039 77.6122 86.8874 77.8214C87.3621 77.9911 87.5771 77.719 87.5671 77.3987C87.5556 77.0066 87.3965 76.5794 87.1828 76.2458C87.0566 76.0498 86.6996 76.0118 86.4487 75.8947C86.1676 75.7645 85.8866 75.5041 85.6142 75.5158C84.9503 75.5451 84.4756 75.3198 84.1215 74.5927C83.9838 75.4588 84.3925 75.8509 84.8872 76.2678C84.7553 76.2327 84.6248 76.1756 84.4914 76.1683C84.2147 76.1508 83.9021 76.0761 83.6626 76.1742C82.9027 76.4828 82.17 76.8618 81.3899 77.229C81.8674 76.458 82.3162 75.7177 82.8023 74.916ZM101.233 27.5912C101.328 27.6058 101.423 27.6204 101.517 27.6365C101.517 37.9679 101.517 48.2977 101.517 58.629C101.664 57.9751 101.744 57.3212 101.761 56.6658C101.887 51.7693 101.996 46.8728 102.118 41.9763C102.244 36.9101 102.385 31.844 102.504 26.7763C102.51 26.5232 102.448 26.1443 102.283 26.0317C101.563 25.5401 100.987 24.9564 100.595 24.1547C100.512 23.9835 100.137 23.8329 99.9358 23.8738C99.4798 23.9675 98.998 24.1108 98.6195 24.3712C97.9097 24.8598 97.2659 24.6521 96.7124 24.2162C96.1718 23.7904 95.9639 23.1628 96.4099 22.3172C97.2788 22.506 98.2065 22.6508 99.0984 22.92C99.8239 23.1394 100.049 23.0458 100.076 22.0364C100.291 22.4123 100.498 22.6113 100.506 22.819C100.531 23.3823 100.932 23.6398 101.318 23.6617C101.479 23.6705 101.796 23.0677 101.833 22.7196C101.979 21.3634 102.042 19.9999 102.135 18.6379C102.147 18.4682 102.15 18.2956 102.178 18.1288C102.203 17.9884 102.257 17.8538 102.345 17.5597C102.458 19.5303 102.352 21.3488 102.639 23.1292C102.728 23.1306 102.816 23.1321 102.905 23.1336C102.994 22.6713 103.083 22.209 103.172 21.7467C103.201 23.1453 103.313 24.4839 104.821 25.2314C104.516 25.4845 104.341 25.7347 104.113 25.8005C103.493 25.9805 103.446 26.3959 103.446 26.9606C103.442 32.5915 103.409 38.2209 103.387 43.8518C103.381 45.3352 103.386 46.8187 103.386 48.3021C103.462 48.3036 103.539 48.3065 103.615 48.308C103.832 41.5111 104.048 34.7143 104.27 27.7287C104.392 28.0944 104.454 28.2758 104.579 28.6489C104.679 28.1003 104.729 27.7492 104.81 27.4054C104.909 26.9899 104.98 26.5539 105.161 26.175C105.418 25.6338 105.762 25.1363 106.089 24.5877C105.749 24.3961 105.558 24.2981 105.379 24.184C104.771 23.7978 104.642 23.3296 104.861 22.6523C105.017 22.1724 105.148 21.6677 105.184 21.1659C105.247 20.256 105.734 19.7132 106.476 19.3124C107.218 18.9115 107.607 18.1961 107.528 17.4018C107.326 15.3726 106.774 13.4898 104.848 12.3912C104.517 12.2024 104.23 11.9318 103.905 11.7284C103.708 11.6056 103.483 11.4812 103.261 11.4578C102.477 11.3773 101.689 11.3159 100.902 11.2983C100.597 11.291 100.287 11.4198 99.9788 11.4871C99.9931 11.5426 100.006 11.5982 100.02 11.6538C100.253 11.6846 100.485 11.7153 100.658 11.7387C100.01 12.002 99.3436 12.3151 98.6496 12.5462C96.397 13.2982 95.0591 16.4538 96.4615 18.793C96.569 18.9715 96.6264 19.1953 96.6536 19.4045C96.7411 20.0716 96.5719 20.8411 97.4351 21.1864C96.7755 21.0884 96.0026 21.2873 95.8707 20.2838C95.7331 20.3686 95.594 20.4081 95.5854 20.4666C95.4477 21.4 95.3187 22.3363 95.2154 23.274C95.204 23.3837 95.3517 23.5169 95.4363 23.6324C95.8822 24.2396 96.6379 24.6346 96.6622 25.5328C96.6651 25.6118 96.8142 25.7259 96.9146 25.7566C97.3261 25.8795 97.3534 26.1853 97.362 26.5539C97.4107 28.5275 97.4752 30.4995 97.5441 32.473C97.577 33.4342 97.6315 34.3953 97.676 35.3565C97.9169 32.5067 98.0674 29.6598 98.2381 26.8143C98.2553 26.5247 98.3858 26.2409 98.5091 25.7888C98.6525 26.2979 98.7328 26.5861 98.813 26.8729C98.9435 25.8766 99.3737 25.1641 100.178 24.6594C101.017 25.8883 101.067 26.6754 100.26 27.7931C100.145 27.5839 100.048 27.4068 99.9516 27.2298C99.8799 27.4917 99.8598 27.7974 99.9989 27.9394C100.453 28.4031 100.499 28.9634 100.508 29.5559C100.514 29.9158 100.541 30.2742 100.56 30.6341C100.601 30.6326 100.644 30.6312 100.686 30.6282C100.871 29.6188 101.051 28.605 101.233 27.5912ZM42.0226 28.1017C42.1115 28.1076 42.2019 28.1134 42.2908 28.1208C42.3309 27.6482 42.3711 27.1757 42.4127 26.7032C42.503 26.7061 42.5933 26.709 42.6837 26.7119C42.6837 27.3483 42.6507 27.9876 42.6908 28.6225C42.751 29.5793 42.8916 30.4834 43.8838 31.0057C44.3498 31.2515 44.5993 31.2559 44.8216 30.7789C44.5635 30.4951 44.314 30.223 44.0659 29.9494C44.1018 29.8924 44.1376 29.8368 44.1735 29.7797C44.5434 29.9699 44.9478 30.1089 45.2747 30.3576C46.0977 30.9837 46.9064 31.6333 47.6764 32.3253C48.0392 32.6515 48.2873 33.1079 48.6113 33.4825C48.8049 33.7063 49.0458 33.8848 49.2666 34.0837C49.3154 34.0442 49.3641 34.0033 49.4143 33.9638C49.4803 34.8576 49.5448 35.753 49.6108 36.6468C49.8058 35.9607 49.8129 35.2673 49.9735 34.6133C50.0667 34.2315 50.3435 33.8145 50.6604 33.6097C50.7894 33.5263 51.3113 33.9052 51.5336 34.1759C52.1588 34.941 52.5717 35.791 52.4943 36.8589C52.4298 37.7543 52.5172 38.6613 52.5244 39.5625C52.533 40.5441 52.5258 41.5257 52.5258 42.5074C52.5947 42.5059 52.6621 42.5044 52.7309 42.5015C52.8456 40.1418 52.9574 37.7806 53.0779 35.4209C53.1381 34.2417 53.5783 33.7692 54.6795 33.7078C54.6795 33.4927 54.7355 33.2572 54.6709 33.0611C54.2594 31.8118 54.8875 30.8652 55.375 29.79C55.8137 28.82 56.0976 27.6219 55.9829 26.5788C55.7334 24.3039 54.1547 22.6215 52.48 21.4497C50.4797 20.0497 48.0966 19.1046 45.5486 20.3847C45.3808 20.4695 45.1686 20.4622 45.0008 20.5471C44.0874 21.0108 43.1855 21.4219 43.0048 22.683C42.8586 23.707 42.4012 24.6828 42.2004 25.704C42.0456 26.4837 42.0757 27.3 42.0226 28.1017ZM72.1127 16.3543C72.1658 16.3177 72.2188 16.2826 72.2733 16.246C72.9673 16.6864 73.667 17.1194 74.351 17.5758C74.4184 17.6212 74.4184 17.7997 74.4184 17.9167C74.4241 18.8267 74.4241 19.7351 74.4241 20.6451C74.4241 25.0559 74.4241 29.4681 74.4241 33.8789C74.4743 33.8789 74.5259 33.8804 74.5761 33.8804C74.6593 30.2362 74.7424 26.592 74.8256 22.9492C74.8643 22.9507 74.9045 22.9522 74.9432 22.9522C75.1038 32.5915 75.2644 42.2323 75.425 51.8717C75.6257 43.9996 75.7146 36.1275 75.8465 28.2583C75.9025 24.9242 76.0286 21.5902 76.1677 18.2576C76.2222 16.9658 76.8115 15.6872 76.2193 14.3837C76.1821 14.3018 76.1663 14.1701 76.205 14.0984C76.3082 13.9068 76.4459 13.7356 76.5692 13.5571C76.6165 13.5981 76.6624 13.6376 76.7097 13.6785C76.4158 14.391 76.5219 14.8006 77.127 15.2424C77.3292 14.8138 77.398 14.1906 78.1479 14.4656C78.1938 15.5189 78.2397 16.5649 78.2942 17.8011C78.5551 16.761 78.7659 15.9227 79.014 14.9352C79.3925 15.5248 79.741 15.9505 79.9604 16.4391C80.2113 16.9951 80.4565 17.5963 80.5081 18.1961C80.5956 19.2421 80.5325 20.3013 80.5325 21.3546C80.6257 21.3561 80.7189 21.3576 80.8121 21.359C80.9124 18.8281 81.0171 16.2987 81.1046 13.7678C81.1103 13.6171 81.0028 13.4533 80.9196 13.3113C79.9919 11.7255 78.8218 10.5391 76.9621 10.0153C75.7505 9.67447 74.6077 9.26484 73.3501 9.54573C73.0691 9.60863 72.5816 9.80028 72.5845 9.92024C72.6031 10.5215 72.1787 10.4791 71.8431 10.5566C71.3155 10.678 70.7319 10.6751 70.4809 11.3481C71.1878 11.8016 71.9034 12.1571 72.7967 12.0971C73.1193 12.0752 73.5466 12.2712 73.7746 12.514C74.2262 12.9939 74.7066 13.5279 74.9231 14.1335C75.1038 14.6397 75.1253 15.4151 74.8586 15.8305C74.3682 16.5913 73.2885 16.4889 72.4654 15.7896C71.8274 15.2468 71.7313 14.5563 72.2131 13.7912C72.0625 13.563 71.9306 13.2953 71.7385 13.0861C71.3413 12.6516 70.772 12.7364 70.491 13.2294C70.3218 13.5249 70.1239 13.8029 69.9375 14.0882C69.9776 14.6616 70.0665 15.2849 70.0508 15.9066C70.035 16.5503 69.5776 16.7478 69.0815 16.3748C68.9625 16.2855 68.8592 16.1729 68.7101 16.0354C68.3975 17.1823 66.6367 16.9438 66.7213 18.5151C67.2949 17.2555 68.495 18.0074 69.2464 17.3491C69.3353 17.766 69.3941 18.044 69.4529 18.3205C69.4858 18.3219 69.5174 18.3219 69.5504 18.3234C69.6005 17.8801 69.6507 17.4369 69.7167 16.8634C70.1497 16.8136 70.6157 16.7946 71.0674 16.701C71.6969 16.5693 72.0697 16.8005 72.0926 17.4544C72.1285 18.477 72.1385 19.5011 72.1428 20.5251C72.15 22.0042 72.1442 23.4832 72.1442 24.9608C72.2159 24.9593 72.2891 24.9593 72.3608 24.9579C72.4525 22.9127 72.5586 20.8689 72.6318 18.8237C72.6676 17.9708 73.0404 17.0433 72.1127 16.3543ZM130.625 32.3282C131.259 31.8206 131.346 31.1812 130.747 30.3795C130.012 29.3964 129.252 28.4338 128.494 27.4697C128.394 27.3425 128.256 27.2342 128.116 27.1523C126.229 26.0478 124.352 26.4354 122.491 27.2254C122.293 27.3088 122.164 27.5604 121.917 27.8282C122.2 27.8282 122.312 27.8282 122.423 27.8282C121.873 28.428 121.215 28.8259 120.663 29.3423C120.221 29.7563 119.827 30.2771 119.57 30.8257C119.421 31.1447 119.47 31.6743 119.632 32.0063C119.914 32.5842 120.351 33.0831 120.71 33.5951C120.729 33.5278 120.772 33.3742 120.815 33.2206C120.892 33.2045 120.968 33.1884 121.045 33.1723C121.192 33.7209 121.388 34.2622 121.473 34.8211C121.566 35.4443 121.57 36.0836 121.589 36.7156C121.606 37.292 121.593 37.8684 121.593 38.4448C122.092 36.2474 121.573 33.9023 122.888 31.9361C122.095 31.9859 121.374 32.0297 120.607 32.078C121.021 29.8339 121.565 29.3277 123.939 28.8873C124.065 29.5954 124.191 30.3035 124.315 30.9954C125.057 30.2186 125.287 30.2567 125.769 31.2573C125.862 31.4519 125.968 31.6523 126.008 31.8615C126.084 32.258 125.883 32.4321 125.518 32.2989C125.311 32.2229 125.142 32.04 125.037 31.9654C124.745 32.138 124.449 32.3121 124.23 32.4408C123.872 33.124 123.529 33.778 123.186 34.4319C123.902 33.9623 124.613 33.6785 125.389 33.9404C126.028 34.1583 126.98 33.9682 127.092 35.1444C127.208 34.7099 127.28 34.3383 127.192 34.0106C127.058 33.5132 126.987 33.0962 127.575 32.9002C128.087 32.7305 128.595 33.0743 128.679 33.7268C128.774 34.448 128.765 35.1839 128.804 35.9139C128.819 36.1684 128.84 36.423 128.859 36.679C128.912 36.6731 128.963 36.6658 129.016 36.66C129.049 36.1099 129.082 35.5584 129.115 35.0083C129.151 35.0083 129.188 35.0083 129.224 35.0098C129.323 39.3284 129.422 43.647 129.521 47.9656C129.718 44.851 129.822 41.7349 129.968 38.6218C130.043 37.0272 129.936 35.4106 130.602 33.8804C130.77 33.4868 130.625 32.9543 130.625 32.3282ZM105.21 70.4277C105.134 70.5184 105.059 70.6076 104.984 70.6983C105.078 70.8183 105.148 70.9807 105.27 71.0524C105.932 71.4401 106.322 72.0399 106.761 72.6646C107.118 73.1722 107.867 73.4472 108.495 73.6828C108.978 73.8642 109.541 73.8203 110.152 73.8861C109.834 74.6629 110.076 74.9394 110.742 75.0243C110.967 75.0536 111.261 75.3652 111.338 75.6095C111.628 76.5223 111.777 76.6394 112.72 76.3848C113.041 76.2985 113.345 76.1025 113.668 76.0688C114.245 76.0089 114.917 75.8392 115.396 76.0601C117.204 76.8939 119.015 76.6218 120.843 76.3995C120.912 75.2745 120.875 75.2086 119.934 75.4047C119.424 75.5115 119.117 75.3359 118.834 74.9526C118.536 74.5459 118.216 74.1553 117.897 73.7662C117.869 73.7325 117.768 73.7618 117.7 73.7618C117.646 73.9754 117.597 74.1685 117.515 74.4903C117.264 74.2928 117.091 74.1612 116.923 74.0222C116.801 73.9212 116.705 73.7603 116.567 73.712C115.853 73.4575 115.136 73.2102 114.409 73.0054C114.098 72.9176 113.703 72.8138 113.439 72.9337C112.746 73.2483 112.101 73.1576 111.421 72.9557C111.232 72.9001 111.003 72.9381 110.802 72.9806C108.932 73.3726 107.224 73.3594 106.163 71.3274C105.971 70.9588 105.534 70.7232 105.21 70.4277ZM47.0943 63.1934C47.2076 63.1949 47.3223 63.1964 47.4356 63.1978C47.4356 61.6881 47.4069 60.1783 47.4399 58.67C47.6062 50.9954 47.784 43.3208 47.9747 35.6476C47.9876 35.1356 47.8901 34.7347 47.4399 34.4816C46.5508 33.9842 46.2698 33.1591 46.1551 32.1951C46.1121 31.8381 45.8511 31.5075 45.6891 31.1651C45.5987 31.1827 45.5084 31.1988 45.4181 31.2164C44.8503 32.5696 44.324 33.9316 44.8115 35.5262C44.8732 35.374 44.9248 35.2497 44.9994 35.0654C45.1098 35.2321 45.2317 35.3331 45.2317 35.4326C45.2403 40.8162 45.2403 46.2013 45.2403 51.585C45.3177 51.585 45.3937 51.5864 45.4711 51.5864C45.5701 45.9102 45.669 40.234 45.7694 34.5358C46.3788 34.5928 46.4777 34.9278 46.4791 35.3594C46.482 36.3835 46.5035 37.4061 46.5093 38.4301C46.515 39.4688 46.5107 40.5075 46.5107 41.5477C46.6139 41.5462 46.7172 41.5462 46.8204 41.5448C46.8204 40.5236 46.8204 39.501 46.8204 38.4799C46.9122 38.4813 47.0054 38.4843 47.0972 38.4857C47.0943 46.7207 47.0943 54.957 47.0943 63.1934ZM124.123 65.6497C124.145 65.6527 124.167 65.6541 124.19 65.657C124.224 65.2533 124.283 64.848 124.287 64.4443C124.391 56.7462 124.472 49.0482 124.609 41.3516C124.626 40.408 124.941 39.4688 125.118 38.5282C125.232 38.5282 125.347 38.5282 125.463 38.5267C125.595 39.542 125.728 40.5558 125.86 41.5711C126.021 40.6363 126.071 39.6941 126.183 38.7593C126.23 38.3541 126.402 37.9649 126.563 37.4149C125.906 36.1201 124.237 36.2503 122.841 37.7864C122.998 38.3906 123.135 38.91 123.269 39.4264C123.325 39.365 123.408 39.2713 123.492 39.1792C123.565 39.1865 123.638 39.1938 123.711 39.2011C123.849 48.0168 123.986 56.8325 124.123 65.6497ZM128.418 77.8727C128.236 79.1952 128.305 79.2946 129.399 79.3926C129.659 79.4161 129.925 79.3795 130.184 79.4161C131.097 79.5477 132.007 79.7116 132.921 79.8374C133.156 79.8696 133.499 79.9003 133.619 79.7686C133.778 79.5945 133.851 79.2434 133.813 78.9933C133.711 78.3349 133.275 78.0497 132.398 78.1199C131.075 78.2267 129.752 78.5646 128.418 77.8727ZM68.4965 67.8851C67.8957 67.9056 67.5372 68.3225 67.5415 68.9179C67.5458 69.5529 68.0878 70.4058 68.4893 70.4131C68.9696 70.4204 69.4055 69.6099 69.3596 68.6912C69.331 68.128 68.9381 67.9144 68.4965 67.8851ZM121.972 71.443C122.026 71.4167 122.079 71.3903 122.134 71.364C122.134 68.5449 122.134 65.7243 122.134 62.8716C122.095 62.9447 122.056 62.9828 122.053 63.0252C121.914 65.6687 121.772 68.3108 121.658 70.9558C121.651 71.1124 121.861 71.2806 121.972 71.443ZM71.4517 52.8987C71.2782 51.6303 71.1133 50.4248 70.9484 49.2194C70.8996 49.2208 70.8509 49.2238 70.8036 49.2252C70.8036 50.4482 70.8036 51.6713 70.8036 52.947C70.9713 52.9353 71.1678 52.9206 71.4517 52.8987ZM78.6584 76.2181C78.9007 74.2636 78.7717 73.1415 78.2927 72.9381C78.2927 73.8291 78.2798 74.701 78.3042 75.5714C78.3114 75.7338 78.4734 75.8904 78.6584 76.2181ZM67.2461 18.2517C67.1672 18.2941 67.0898 18.3366 67.0109 18.379C67.0726 19.207 67.1328 20.0336 67.2074 21.0518C67.6519 20.2355 66.9665 19.1602 68.3459 18.9042C67.8827 18.6292 67.5644 18.4404 67.2461 18.2517ZM42.0384 45.9585C42.133 45.9672 42.2277 45.9746 42.3223 45.9833C42.3223 44.7706 42.3223 43.5592 42.3223 42.3465C42.308 42.3435 42.2951 42.3406 42.2807 42.3377C42.199 43.5446 42.1187 44.7515 42.0384 45.9585Z" fill="white"/>
<path d="M8.75091 48.4762C8.93731 49.0818 8.65771 49.3378 8.12 49.4432C7.91782 49.4827 7.71564 49.5924 7.54358 49.7138C7.0833 50.0386 6.6345 50.0518 6.13981 49.7884C5.7842 49.5997 5.40135 49.4622 5.02424 49.3174C3.88287 48.877 3.6004 48.2099 3.76386 46.9883C3.90438 45.9467 4.30157 45.3221 5.33683 45.0558C5.73688 44.9534 5.95914 44.9812 6.29466 45.1933C7.01878 45.6497 7.66116 46.1457 8.18596 46.8611C8.5645 47.376 8.88713 47.8281 8.75091 48.4762Z" fill="white"/>
<path d="M171.316 86.8947C172.651 86.9064 173.96 86.9195 175.038 88.0167C175.325 88.3079 175.889 88.3386 176.335 88.4381C177.113 88.6107 177.91 88.7087 178.679 88.9194C178.838 88.9633 179.052 89.5031 178.989 89.5719C178.758 89.822 178.401 90.1526 178.127 90.1219C176.927 89.9859 175.718 89.8162 174.557 89.4929C173.931 89.3188 173.249 88.9238 172.863 88.4147C172.476 87.9041 172.123 87.5091 171.515 87.3511C171.392 87.3189 171.29 87.2077 171.177 87.1331C171.223 87.0512 171.269 86.9737 171.316 86.8947Z" fill="white"/>
<path d="M4.80024 43.4495C3.96286 43.3178 3.37927 42.7926 3.17709 41.9061C2.99499 41.1161 3.6345 40.863 4.08904 40.5236C4.42887 40.269 4.81889 40.0569 5.21607 39.915C5.54013 39.7994 5.94735 39.6985 6.24847 39.8023C6.64279 39.9384 6.81629 40.3041 6.91953 40.803C7.10593 41.6998 6.71305 42.2645 6.14093 42.7429C5.75951 43.0603 5.25192 43.2198 4.80024 43.4495Z" fill="white"/>
<path d="M21.1581 56.6481C20.4512 57.5332 19.5062 57.9604 18.3677 57.9575C17.3153 57.9546 16.8019 57.3196 17.103 56.3073C17.1661 56.0922 17.4443 55.8874 17.6694 55.7938C17.9906 55.6592 18.3649 55.5392 18.699 55.5773C19.2108 55.6358 19.7256 55.7894 20.2031 55.9898C20.5501 56.1347 20.8397 56.4214 21.1581 56.6481Z" fill="white"/>
<path d="M148.066 86.1675C148.923 86.6035 149.758 86.9224 150.453 87.4388C150.698 87.6217 150.663 88.2932 150.618 88.7262C150.605 88.8593 150.062 89.1036 149.888 89.0202C149.249 88.7145 148.581 88.378 148.089 87.8821C147.798 87.588 147.792 86.9794 147.716 86.5011C147.702 86.4089 147.953 86.2714 148.066 86.1675Z" fill="white"/>
<path d="M1.63152 42.7414C1.19418 42.7355 0.183294 42.0509 0.0399058 41.6632C-0.110652 41.255 0.184729 40.705 0.591952 40.6377C1.35765 40.5104 2.3585 41.3136 2.42732 42.1123C2.46891 42.5892 2.26673 42.7487 1.63152 42.7414Z" fill="white"/>
<path d="M167.361 84.159C166.762 84.6622 166.173 84.5906 165.605 84.4545C165.08 84.3287 164.568 84.1341 164.065 83.9322C163.94 83.8825 163.871 83.6894 163.775 83.5621C163.92 83.4626 164.059 83.2871 164.21 83.2754C165.335 83.1935 166.325 83.606 167.361 84.159Z" fill="white"/>
<path d="M60.1396 68.5347C59.1761 68.0665 58.2168 67.6159 57.2747 67.1288C57.0912 67.0337 56.9794 66.7967 56.9019 66.5495C58.3344 66.646 59.2277 67.6086 60.1482 68.5186C60.154 68.5215 60.1153 68.5727 60.1396 68.5347Z" fill="white"/>
<path d="M146.467 88.1308C145.674 87.8924 144.879 87.6539 144.086 87.4154C144.74 86.9502 145.916 87.2721 146.537 87.8836C146.514 87.967 146.491 88.0489 146.467 88.1308Z" fill="white"/>
<path d="M175.995 87.942C177.162 86.896 177.898 88.2288 178.835 88.1673C178.824 88.2507 178.812 88.3326 178.801 88.416C177.902 88.2639 177.001 88.1132 175.995 87.942Z" fill="white"/>
<path d="M25.189 42.4153C24.624 42.3611 24.039 42.4109 24.1437 41.6443C24.1724 41.4336 24.4921 41.2654 24.6799 41.0767C24.8219 41.261 25.0112 41.4263 25.0943 41.634C25.1775 41.8432 25.156 42.0963 25.189 42.4153Z" fill="white"/>
<path d="M170.605 85.2211C169.725 85.7243 169.055 85.36 168.411 84.8875C168.427 84.8202 168.441 84.7544 168.457 84.6871C169.173 84.8656 169.889 85.044 170.605 85.2211Z" fill="white"/>
<path d="M102.762 14.2141C101.45 14.416 100.139 14.6178 98.833 14.8183C98.6767 14.0824 98.6767 14.0824 97.5554 14.6047C97.8436 13.6289 98.4501 13.0305 99.375 12.7877C99.9858 12.6268 100.591 12.3108 101.2 12.3049C102.109 12.2961 103.041 12.4146 103.926 12.6341C104.733 12.8345 105.245 13.4811 105.541 14.3253C104.26 13.5192 102.925 13.4153 101.374 13.9829C101.934 14.0151 102.349 14.037 102.765 14.0605C102.763 14.1131 102.763 14.1643 102.762 14.2141Z" fill="white"/>
<path d="M45.7634 23.0604C45.9383 22.9185 46.1161 22.7751 46.2997 22.6274C45.7921 22.2382 45.6544 22.3011 44.5618 23.3925C44.1603 22.702 44.5217 21.7262 45.3748 21.0825C46.2136 20.449 47.1557 20.2852 48.1479 20.43C48.4347 20.4725 48.6742 20.8075 48.9667 20.8806C49.3524 20.9772 49.8041 20.8528 50.1625 20.9947C51.0817 21.3575 51.8947 21.8988 52.4324 22.9712C51.7398 22.7517 51.1591 22.5674 50.5784 22.3831C50.544 22.4372 50.5096 22.4913 50.4751 22.5469C50.6071 22.7181 50.739 22.8892 50.8709 23.0604C50.3145 23.5286 46.1104 23.5593 45.7634 23.0604Z" fill="white"/>
<path d="M45.7551 29.2121C46.224 29.4125 46.6957 29.6027 47.1589 29.8177C47.5274 29.9889 47.873 30.2113 48.2443 30.3737C48.7333 30.5887 49.1907 30.4585 49.39 29.967C49.6295 29.3759 50.0654 29.2194 50.6016 29.1258C50.8253 29.0863 51.0332 28.9648 51.3401 28.9356C51.0949 29.1901 50.8038 29.414 50.616 29.7051C50.3536 30.1118 50.0568 30.5478 49.9707 31.0086C49.8159 31.8483 49.119 32.2931 48.4307 31.7825C47.4557 31.0583 46.5566 30.2303 45.6246 29.4462C45.6662 29.3686 45.7106 29.2896 45.7551 29.2121Z" fill="white"/>
<path d="M53.8723 30.2405C53.7189 31.9083 52.7625 32.7846 51.416 32.6164C51.1909 32.5886 50.93 32.394 50.8066 32.198C50.7507 32.1102 50.9472 31.7371 51.1106 31.6464C51.9867 31.1651 52.8901 30.7335 53.8723 30.2405Z" fill="white"/>
<path d="M79.3138 12.6501C78.6456 12.4745 77.9774 12.3005 77.3092 12.1249C77.2949 12.1527 77.2791 12.1805 77.2648 12.2083C77.4641 12.3078 77.6648 12.4058 77.8641 12.5053C77.8555 12.5375 77.8484 12.5711 77.8398 12.6033C77.3608 12.5433 76.8662 12.536 76.4087 12.3999C76.198 12.337 76.0589 12.0225 75.8868 11.8221C75.8295 11.7548 75.7836 11.6553 75.7104 11.626C75.1684 11.4022 74.6106 11.2164 74.0815 10.9662C73.9152 10.8872 73.6829 10.583 73.7231 10.4923C73.8105 10.2918 74.0543 10.0212 74.2307 10.0226C75.937 10.0431 77.4856 10.6049 78.8722 11.6056C79.1202 11.784 79.2579 12.1234 79.4457 12.3897C79.4013 12.476 79.3582 12.5638 79.3138 12.6501Z" fill="white"/>
<path d="M126.695 29.0804C129.171 29.5266 130.153 30.2361 130.054 31.8571C128.927 32.2023 127.879 32.0443 126.957 31.2616C126.554 30.9179 126.438 29.6743 126.695 29.0804Z" fill="white"/>
<path d="M127.433 27.5019C127.154 27.4521 126.923 27.3497 126.721 27.3892C126.463 27.4404 126.23 27.6116 125.982 27.7228C125.485 27.9437 125 28.2802 124.482 28.3445C123.923 28.4133 123.332 28.226 122.77 28.1514C123.314 26.9445 126.589 26.4017 127.433 27.5019Z" fill="white"/>
</svg>
