<svg width="244" height="56" viewBox="0 0 244 56" fill="none" xmlns="http://www.w3.org/2000/svg">
<path d="M38.7282 28.9187C39.0037 29.0649 38.9944 28.6939 39.1836 28.6199C38.9002 27.9349 38.5526 27.7926 37.7054 28.0338C37.6721 28.4816 37.6333 28.9401 37.6117 29.3987C37.6086 29.4585 37.6819 29.5393 37.7436 29.5794C37.8218 29.6302 37.9241 29.6489 38.0159 29.6816C38.0159 29.7132 38.0153 29.7443 38.0153 29.7759C37.8797 29.7917 37.7442 29.8075 37.5692 29.8279C37.4312 31.5836 37.2888 33.3867 37.1471 35.1899C37.1311 35.1904 37.1157 35.1904 37.0997 35.191C37.0879 34.9538 37.0688 34.7172 37.0664 34.48C37.0504 32.9276 37.035 31.3746 37.0288 29.8222C37.0282 29.6206 36.985 29.4907 36.6714 29.493C36.6215 29.7703 36.5272 30.0594 36.5235 30.3491C36.505 31.958 36.4884 33.568 36.5137 35.1769C36.5235 35.8201 36.4169 36.4226 36.1587 37.0173C36.0632 37.237 36.0121 37.4911 36.0201 37.7277C36.0534 38.673 36.1193 39.6178 36.1686 40.5632C36.1741 40.6654 36.1735 40.7744 36.1396 40.8698C35.9388 41.4334 35.9554 42.0145 35.9289 42.5973C35.8586 44.1186 35.7477 45.6383 35.6485 47.1585C35.6245 47.5233 35.5844 47.8876 35.5241 48.2518C35.4544 47.4697 35.3854 46.6875 35.3146 45.9054C35.3053 45.8026 35.3096 45.6908 35.2653 45.601C35.0638 45.1922 35.0816 44.7618 35.0816 44.3293C35.0823 42.9553 35.0749 41.5814 35.0662 40.2074C35.0656 40.0719 35.0354 39.9363 35.0188 39.8008C34.9935 39.8019 34.9676 39.8031 34.9424 39.8042C34.8949 40.8941 34.8475 41.984 34.8 43.0745C34.7902 43.075 34.7803 43.0756 34.7705 43.0762C34.7058 42.2325 34.6152 41.3899 34.5819 40.5451C34.5178 38.9379 34.4932 37.3296 34.4359 35.7224C34.426 35.444 34.3545 35.1639 34.2775 34.8923C34.0662 34.1497 34.1567 33.3952 34.1549 32.6458C34.1537 32.1607 34.1173 31.6914 33.9152 31.2391C33.7137 30.7885 33.6515 30.3186 33.6755 29.8313C33.6964 29.4088 33.6693 28.9842 33.6847 28.5612C33.6915 28.3726 33.6102 28.2828 33.4229 28.2461C33.3532 28.2325 33.267 28.228 33.2195 28.1885C32.803 27.8418 32.3174 27.7062 31.7616 27.604C31.2502 27.5103 30.7948 27.1686 30.3086 26.9467C30.0991 26.8507 29.8687 26.7931 29.6598 26.6965C29.5014 26.6237 29.3622 26.5175 29.2272 26.4113C29.9747 26.7293 30.7825 26.7987 31.5737 26.9167C31.7739 26.9467 32.0241 26.9252 31.8966 26.6124C31.8855 26.5847 31.9077 26.5395 31.9255 26.5079C32.0703 26.2583 32.1202 26.0516 31.6944 26.0369C31.668 26.0358 31.6267 26.0149 31.6199 25.9957C31.4751 25.5693 31.0259 25.645 30.6968 25.5258C30.4892 25.4507 30.2748 25.3931 30.0646 25.3231C29.6931 25.1989 29.3455 25.3417 29.1705 25.6625C28.8002 25.5202 28.4317 25.3852 28.0706 25.2361C27.879 25.1571 27.7077 25.1305 27.5296 25.2621C27.3589 25.388 27.2166 25.3592 27.0428 25.2237C26.9178 25.126 26.72 25.0989 26.5487 25.0616C26.3909 25.0272 26.2252 25.021 26.0748 25.004C25.8357 25.9386 25.5535 26.8631 25.5738 27.8389C25.5825 28.2619 25.4857 28.6871 25.4371 29.1112C25.4032 29.109 25.3699 29.1062 25.336 29.1039C25.336 27.7215 25.336 26.339 25.336 24.9566C25.3101 24.9526 25.2836 24.9481 25.2577 24.9442C25.2393 25.0035 25.2054 25.0622 25.2054 25.1215C25.2072 26.9659 25.1863 28.8114 25.2331 30.6552C25.246 31.1719 25.2516 31.6547 25.0242 32.137C24.9441 32.3064 24.9681 32.5238 24.9712 32.7192C24.9798 33.2619 25.039 33.8057 25.0137 34.3462C24.9275 36.1697 24.8135 37.9914 24.71 39.8138C24.7075 39.8601 24.697 39.9058 24.6323 39.9527C24.5953 38.4703 24.559 36.9879 24.522 35.5055C24.4955 35.5061 24.4696 35.5061 24.4431 35.5067C24.413 36.186 24.3784 36.8648 24.3544 37.5442C24.331 38.2128 24.2829 38.8741 24.0617 39.5207C23.9841 39.7477 23.9792 40.0013 23.9736 40.243C23.9576 40.8918 23.9718 41.5418 23.9453 42.1901C23.9379 42.3793 23.8627 42.5769 23.7715 42.7498C23.5201 43.2252 23.5897 43.7166 23.631 44.2129C23.6489 44.4253 23.6329 44.6416 23.6138 44.8545C23.5503 45.5666 23.4788 46.2787 23.4079 46.9902C23.4018 47.0512 23.3753 47.1111 23.3359 47.25C23.2619 46.2126 23.1984 45.2588 23.1227 44.3056C23.1005 44.0255 23.0715 43.7414 22.9969 43.4703C22.7536 42.5899 22.8411 41.6943 22.8195 40.8037C22.8146 40.5897 22.7739 40.3757 22.7474 40.1622C22.711 39.8652 22.6383 39.5676 22.642 39.2711C22.6587 38.0558 22.6211 36.8473 22.3962 35.6445C22.3204 35.2413 22.3555 34.8188 22.353 34.4055C22.3475 33.6245 22.3592 32.8429 22.3469 32.0619C22.3426 31.801 22.2859 31.5412 22.2569 31.2809C22.2292 31.0302 22.1916 30.7789 22.183 30.527C22.1602 29.851 22.1528 29.1745 22.1324 28.4985C22.13 28.4121 22.0881 28.3268 21.9944 28.2472C21.8669 30.4807 21.7393 32.7136 21.6118 34.947C21.5865 34.9476 21.5612 34.9476 21.536 34.9482C21.536 34.4354 21.5409 33.9221 21.5354 33.4093C21.5107 31.0759 21.483 28.7425 21.4565 26.4096C21.4559 26.3718 21.475 26.3227 21.4552 26.2984C21.0788 25.8234 21.3314 25.2819 21.2624 24.7753C21.2476 24.6658 21.2599 24.5534 21.2599 24.3953C20.5544 24.4975 19.9573 24.2654 19.3479 24.0339C19.0651 23.9266 18.7231 23.9508 18.4076 23.9158C18.3262 23.9068 18.2166 23.9277 18.1673 23.8865C17.821 23.599 17.3693 23.7052 16.9817 23.5945C16.6724 23.5064 16.3563 23.3517 16.1209 23.1506C15.4178 22.5503 14.6445 22.1127 13.6635 22.0421C13.292 22.0155 12.9974 21.8727 12.7214 21.6282C12.3233 21.2746 11.8193 21.1335 11.2536 21.1995C11.1168 21.2153 10.9628 21.2035 10.8346 21.1606C10.3743 21.007 9.92082 20.8353 9.46545 20.6681C9.23685 20.5846 9.03042 20.3976 8.75191 20.5597C8.7174 20.58 8.62251 20.5529 8.58369 20.5202C8.26697 20.2485 7.97366 19.9701 7.94347 19.5314C7.93299 19.3806 7.85659 19.1987 7.74074 19.0971C7.48318 18.8712 7.36302 18.621 7.37534 18.2969C7.38705 17.9868 7.36179 17.6763 7.36548 17.3657C7.37288 16.775 7.6631 16.3678 8.21336 16.0261C8.80428 15.6596 9.40815 15.7619 10.0206 15.7924C10.3639 15.8093 10.7015 15.9081 11.0441 15.9505C11.2247 15.9725 11.412 15.964 11.5944 15.9499C12.1964 15.9036 12.8163 15.8816 13.3111 16.234C13.8034 16.5841 14.3457 16.6778 14.931 16.7332C15.1171 16.7507 15.3464 16.841 15.4585 16.9698C15.6772 17.2211 15.9607 17.3188 16.2706 17.3877C16.7186 17.4865 17.1672 17.5921 17.6219 17.6576C18.0958 17.7259 18.5986 17.8519 19.049 17.7706C19.6979 17.6531 20.3307 17.7847 21.0375 17.6836C20.982 17.2267 21.0048 16.7157 20.8446 16.2582C20.6357 15.6625 20.5562 15.1034 20.7848 14.5076C21.0406 13.8401 21.035 13.1444 21.0276 12.447C21.0221 11.954 21.1632 11.4468 21.0775 10.9702C20.9555 10.2863 21.1077 9.69339 21.4429 9.10326C21.5095 8.9858 21.4965 8.82768 21.5089 8.68706C21.5575 8.12912 21.8163 7.88686 22.4054 7.7118C22.9883 7.53843 23.5571 7.3436 24.1739 7.27357C24.4684 7.24026 24.7919 7.1403 24.8135 6.75629C24.8856 6.96241 24.9577 7.1691 25.0408 7.40685C25.4241 7.09795 25.4888 7.52431 25.694 7.62483C26.0329 7.20976 26.1826 6.7529 26.1956 6.25087C26.2005 6.06621 26.2443 5.88211 26.2973 5.70027C26.3965 6.69982 26.4957 7.69937 26.5949 8.69892C26.63 8.69892 26.6651 8.69949 26.7002 8.69949C26.7261 8.5984 26.752 8.49732 26.7773 8.39567C26.8216 9.06486 27.1303 9.65104 27.4095 10.2547C27.5876 10.6387 27.4471 11.082 27.1994 11.3988C26.8672 11.8241 26.8259 12.2476 26.8968 12.7288C26.9208 12.8914 26.8549 13.0648 26.8272 13.233C26.8124 13.324 26.7754 13.4143 26.7754 13.5052C26.7766 14.55 26.8112 15.5953 26.773 16.6383C26.7575 17.0522 26.5875 17.4622 26.4796 17.8728C26.3958 18.1918 26.3003 18.5086 26.2042 18.8441C28.0472 19.1807 29.9192 19.319 31.7567 19.8775C31.7567 19.8888 31.7474 19.969 31.7598 20.0464C31.7709 20.1164 31.7819 20.2141 31.8331 20.2463C32.05 20.3824 32.2743 20.5128 32.5103 20.619C32.8036 20.7511 33.0063 20.6145 32.9909 20.3174C32.9299 19.1146 32.8695 17.9117 32.8122 16.7089C32.8085 16.6264 32.8134 16.5366 32.8449 16.461C33.1092 15.8353 33.0895 15.1977 32.8239 14.5946C32.4604 13.7684 32.2872 12.9298 32.3495 12.0404C32.3815 11.5812 32.355 11.1182 32.3464 10.6574C32.3445 10.5535 32.3069 10.4496 32.286 10.3456C32.2558 10.3468 32.2256 10.3485 32.196 10.3496C32.196 10.7189 32.196 11.0882 32.196 11.4581C32.1628 11.4593 32.1295 11.4604 32.0956 11.4615C32.0629 11.1018 32.0278 10.7421 31.9995 10.3818C31.981 10.1474 31.9951 9.90855 31.9514 9.67815C31.9107 9.46299 31.7974 9.25969 31.745 9.04566C31.6741 8.75596 31.5848 8.46061 31.5866 8.16809C31.5903 7.53052 31.6439 6.89352 31.6834 6.25652C31.6871 6.19891 31.7209 6.1368 31.7585 6.08823C31.9385 5.85444 32.1609 5.64097 32.2995 5.38854C32.4832 5.0531 32.7105 4.76679 33.026 4.52904C33.2398 4.3681 33.4432 4.19303 33.6336 4.0095C33.901 3.75199 34.211 3.57523 34.5751 3.44817C34.8148 3.36459 35.0194 3.19744 35.272 3.04891C35.269 3.04722 35.3207 3.07715 35.3947 3.12007C35.4803 2.89588 35.5456 2.68862 35.6393 2.49323C35.6929 2.38198 35.8013 2.29389 35.8697 2.18659C35.9233 2.10301 35.9751 2.00927 35.9887 1.91552C36.0811 1.27626 36.1637 0.635873 36.2783 0C36.3393 0.909761 36.4003 1.82009 36.4613 2.72985C36.5038 2.73098 36.5463 2.73154 36.5888 2.73267C36.64 2.45653 36.6911 2.17981 36.7423 1.90367C36.7638 1.90197 36.7854 1.90028 36.807 1.89858C36.8803 2.47008 36.9542 3.04157 37.0276 3.61307C37.0578 3.61363 37.0879 3.6142 37.1175 3.61476C37.2334 3.04553 37.3492 2.47573 37.4601 1.92964C37.5002 2.30123 37.4965 2.71178 37.5988 3.09917C37.7091 3.51424 37.7713 3.94004 38.0554 4.32574C38.2877 4.64199 38.3869 5.05705 38.4744 5.44163C38.5576 5.80643 38.5884 6.18988 38.573 6.56259C38.5354 7.48421 38.4479 8.4047 38.4004 9.32633C38.377 9.78262 38.4177 10.2412 38.3943 10.6975C38.3197 12.1623 38.2291 13.6261 38.1447 15.0904C38.1194 15.0904 38.0942 15.0898 38.0695 15.0898C38.0695 13.9519 38.0695 12.814 38.0695 11.6767C38.0301 11.6727 37.9907 11.6688 37.9506 11.6648C37.9019 11.9613 37.8144 12.2566 37.8101 12.5537C37.7941 13.7582 37.8033 14.9628 37.804 16.1679C37.804 16.2334 37.7996 16.3034 37.8224 16.3638C38.2113 17.3775 38.0467 18.4313 38.0831 19.4687C38.1084 20.1825 38.088 20.8974 38.088 21.6626C38.6438 21.4463 39.0585 21.8077 39.5373 21.8964C39.6685 21.9207 39.7807 22.0263 39.9058 22.0873C40.1461 22.2047 40.3895 22.3171 40.6323 22.4306C40.6766 22.4515 40.7432 22.4526 40.7697 22.4843C41.0716 22.8446 41.5479 22.8327 41.9595 22.9321C42.4389 23.0479 42.8481 23.2331 43.1173 23.616C43.4852 24.1389 44.012 24.2213 44.6603 24.1112C44.6603 24.0248 44.6603 23.9333 44.6603 23.8418C44.6603 22.6463 44.6874 21.4503 44.6455 20.2565C44.6301 19.8244 44.4421 19.3986 44.3466 18.9678C44.2943 18.73 44.2425 18.4878 44.2388 18.2472C44.2259 17.4193 44.2277 16.5909 44.2394 15.7624C44.2413 15.6099 44.2826 15.4417 44.3627 15.3095C44.5524 14.9972 44.643 14.681 44.6282 14.3179C44.6017 13.6882 44.6418 13.0563 44.6128 12.4266C44.5906 11.9376 44.5062 11.4508 44.4495 10.9629C44.4237 10.9612 44.3984 10.9601 44.3725 10.9584C44.3355 11.9381 44.2992 12.9174 44.2622 13.8972C44.2474 13.8966 44.232 13.896 44.2172 13.8955C44.1667 13.0416 44.1143 12.1872 44.065 11.3333C44.0367 10.8449 44.0724 10.3456 43.972 9.87071C43.8611 9.34948 43.7033 8.85874 43.9036 8.3183C43.9769 8.12065 43.8642 7.85523 43.8044 7.62822C43.7237 7.31875 43.8062 7.03865 43.9067 6.74839C44.0022 6.4728 44.0959 6.18536 44.11 5.90018C44.1267 5.5557 44.2641 5.28972 44.5149 5.05028C44.7293 4.84585 44.8926 4.62504 44.9154 4.31727C44.9289 4.13487 45.0583 3.96037 45.128 3.77966C45.1711 3.66841 45.2222 3.55321 45.2309 3.43744C45.2814 2.7626 45.3208 2.0872 45.4009 1.4118C45.4348 1.85171 45.4367 2.29671 45.5119 2.73041C45.5883 3.16976 45.7374 3.59839 45.8545 4.03209C45.889 4.03661 45.9241 4.04169 45.9586 4.04621C46.067 3.64356 46.1755 3.24035 46.271 2.88741C46.34 3.09917 46.4226 3.36346 46.5125 3.62549C46.5588 3.76102 46.6487 3.81185 46.8169 3.78079C46.9131 3.76328 47.0289 3.80677 47.1287 3.84065C47.2335 3.87623 47.3296 3.93383 47.4294 3.98127C47.9261 4.21958 47.9261 4.21958 48.1787 3.7582C48.2588 4.3297 48.676 4.6674 49.0272 5.07569C49.5756 5.71269 49.9447 6.48071 49.543 7.32666C49.196 8.0574 49.0525 8.80622 49.0636 9.60134C49.0722 10.2299 48.9533 10.8601 48.9681 11.4881C48.9779 11.9229 49.1202 12.3555 49.1997 12.7897C49.225 12.9281 49.257 13.0687 49.2533 13.2076C49.2034 15.2299 49.1504 17.2516 49.0925 19.2738C49.071 20.026 49.0383 20.7783 49.0019 21.5299C48.9927 21.723 48.9514 21.915 48.8565 22.1031C48.8565 20.2559 48.8565 18.4087 48.8565 16.5615C48.8183 16.557 48.7795 16.5519 48.7407 16.5474C48.6575 16.9952 48.5096 17.4419 48.5028 17.8908C48.4751 19.6409 48.5041 21.3921 48.485 23.1422C48.4782 23.7882 48.3999 24.4342 48.3457 25.0791C48.3297 25.2734 48.4178 25.3542 48.6027 25.4592C49.2583 25.8325 49.9509 25.9274 50.6977 25.8167C51.0532 25.7642 51.3003 25.8827 51.4618 26.2012C51.5172 26.3114 51.7243 26.4198 51.8629 26.4204C52.2308 26.422 52.5771 26.4588 52.9006 26.627C52.9536 26.6547 53.0152 26.6869 53.0719 26.6852C53.7682 26.6666 54.3018 27.037 54.8742 27.3137C54.9013 27.3267 54.9297 27.3392 54.9592 27.3459C54.9777 27.3504 54.9987 27.3437 54.9925 27.3442C54.9925 26.6293 54.9882 25.9172 54.9938 25.2051C55.0024 24.0389 55.0301 22.8728 55.0209 21.7066C55.0184 21.3994 54.91 21.0922 54.8508 20.7856C54.8169 20.7878 54.7824 20.7895 54.7485 20.7918C54.6937 21.3255 54.6388 21.8586 54.584 22.3922C54.5698 22.395 54.5556 22.3979 54.5415 22.4007C54.462 21.9478 54.4004 21.4921 54.2987 21.0431C53.9986 19.7104 54.1483 18.3618 54.1145 17.0195C54.1126 16.9455 54.1262 16.8687 54.149 16.7976C54.4521 15.8449 54.4484 14.882 54.1927 13.9288C53.9512 13.0264 54.1305 12.1618 54.3622 11.2927C54.3757 11.2407 54.4016 11.1724 54.4454 11.1498C54.934 10.8991 55.0221 10.4213 55.2285 10.0102C55.2532 9.96051 55.2803 9.91194 55.316 9.84417C55.3641 9.95486 55.4035 10.0452 55.443 10.1356C55.4633 10.1344 55.4836 10.1327 55.504 10.1316C55.565 9.50534 55.626 8.8785 55.687 8.25223C55.7079 8.25167 55.7283 8.25054 55.7492 8.24997C55.8176 8.63793 55.8866 9.0259 55.955 9.41386C55.9667 9.4788 55.9532 9.56238 55.9926 9.6053C56.085 9.70412 56.2021 9.78262 56.3093 9.86902C56.3691 9.77189 56.472 9.67815 56.4819 9.57706C56.5466 8.93102 56.5903 8.28329 56.6439 7.63612C56.6575 7.46953 56.6833 7.3035 56.7357 7.13861C56.7863 7.85636 56.8374 8.57356 56.8879 9.29131C56.9175 9.29188 56.9477 9.29244 56.9773 9.29301C56.9933 9.09536 57.0087 8.89714 57.0247 8.69949C57.0333 8.69892 57.0414 8.69892 57.0494 8.69836C57.0789 9.04566 57.1085 9.39296 57.1362 9.72332C57.416 9.84587 57.6865 9.96276 57.9545 10.083C58.1012 10.1491 58.2374 10.2463 58.3914 10.2863C59.0021 10.4473 59.2621 10.8889 59.4907 11.3734C59.76 11.9432 59.8641 12.5142 59.8271 13.1483C59.8019 13.5781 59.8327 13.9886 59.6102 14.3834C59.5794 14.4382 59.6195 14.5562 59.6694 14.6143C59.9516 14.943 59.9491 15.3095 59.9257 15.7059C59.8364 17.2279 59.7797 18.7509 59.7064 20.2734C59.6478 21.4825 59.5825 22.6915 59.4962 23.8995C59.4506 22.1053 59.4057 20.3107 59.3601 18.5166C59.336 18.5137 59.3126 18.5103 59.2886 18.5075C59.2683 18.5979 59.2337 18.6882 59.2294 18.7791C59.2171 19.0423 59.2011 19.306 59.2153 19.5686C59.2442 20.0938 59.1561 20.5919 58.9183 21.0753C58.8338 21.2475 58.8037 21.4553 58.8018 21.6468C58.7889 22.9643 58.7765 24.2818 58.7932 25.5993C58.7987 26.042 58.7396 26.4588 58.5227 26.8529C58.3427 27.1799 58.2725 27.5232 58.3002 27.8886C58.3175 28.1162 58.49 28.2534 58.7439 28.2128C59.3422 28.1168 59.8992 28.1828 60.4199 28.5019C60.5992 28.612 60.8365 28.6499 61.0527 28.7007C61.367 28.7741 61.685 28.8447 62.006 28.8831C62.1181 28.8966 62.2506 28.8215 62.3628 28.7679C62.4786 28.7125 62.6277 28.5556 62.6801 28.5815C62.8064 28.6442 62.9629 28.786 62.9672 28.9C62.9789 29.2118 63.1638 29.3388 63.4479 29.3343C64.2089 29.3219 64.8694 29.6743 65.5916 29.7974C66.055 29.8764 66.5177 29.9623 66.9762 30.0605C67.2522 30.1198 67.5104 30.1927 67.7125 30.4248C67.8191 30.5468 68.0816 30.5552 68.2732 30.6145C68.638 30.728 69.0188 30.811 69.3633 30.963C69.8642 31.1838 70.3652 31.3283 70.9302 31.2922C71.1231 31.2798 71.3542 31.3204 71.5144 31.4136C71.9697 31.6796 72.4627 31.8021 72.9895 31.8529C73.1251 31.8659 73.2557 31.9156 73.3888 31.9484C73.3882 31.9789 73.3876 32.0094 73.387 32.0393C73.2274 32.0529 73.0635 32.0941 72.9088 32.0749C72.5052 32.0258 72.1078 31.9309 71.7029 31.8964C71.5717 31.8851 71.3948 31.9772 71.2938 32.0715C70.9943 32.3505 70.831 32.386 70.4601 32.1901C70.4515 32.1856 70.4428 32.1788 70.433 32.1771C69.5216 31.9857 68.7637 31.3577 67.7686 31.3961C67.6632 31.4 67.5523 31.3165 67.4457 31.2696C67.3379 31.2222 67.2343 31.1657 67.1259 31.1205C67.0341 31.0827 66.9004 31.081 66.8486 31.0189C66.6249 30.7506 66.3335 30.7738 66.0155 30.7845C65.8282 30.7907 65.6378 30.6925 65.4468 30.6484C64.984 30.5422 64.5225 30.427 64.0548 30.3412C63.5736 30.2525 63.08 30.2164 62.6031 30.1147C62.2562 30.0413 61.9511 30.1159 61.6554 30.2407C61.579 30.2729 61.5056 30.4513 61.5352 30.5287C61.6332 30.7811 61.8297 30.9596 62.1526 30.9528C62.3264 30.9488 62.4995 30.9234 62.6733 30.9172C62.7731 30.9138 62.9321 30.8941 62.9654 30.9409C63.2556 31.3492 63.7603 31.2126 64.1534 31.3278C64.9994 31.5757 65.8837 31.7123 66.7408 31.932C67.4155 32.1048 68.0841 32.2731 68.7933 32.2437C68.8716 32.2403 68.9572 32.2584 69.0293 32.2872C69.4779 32.4634 69.9209 32.652 70.3726 32.8214C70.5118 32.874 70.6751 32.9135 70.8212 32.9005C71.3338 32.8559 71.7911 32.9835 72.2366 33.2015C72.3851 33.2743 72.5687 33.3065 72.7387 33.3144C72.8293 33.3184 72.9242 33.2303 73.0173 33.184C72.9556 33.1077 72.9119 32.9971 72.8299 32.9621C72.6365 32.879 72.4226 32.8372 72.2218 32.7678C72.1182 32.7322 72.0172 32.6825 71.9297 32.621C71.8952 32.5967 71.9007 32.5244 71.8878 32.4736C71.9439 32.4657 72.0098 32.4352 72.0536 32.4527C72.6623 32.691 73.2662 32.9417 73.8768 33.1766C74.1091 33.2659 74.3556 33.3263 74.5972 33.3946C74.8788 33.4743 75.1604 33.5539 75.4451 33.6222C75.6299 33.6663 75.8197 33.699 76.0089 33.7199C76.1457 33.7352 76.2861 33.7227 76.4501 33.7227C76.3884 33.9418 76.2732 34.0322 76.0643 33.9842C75.8961 33.9452 75.7236 33.908 75.5677 33.8408C75.2319 33.6968 74.9077 33.5527 74.5121 33.6024C74.376 33.6199 74.217 33.5381 74.079 33.4799C73.7616 33.3455 73.4572 33.3139 73.1399 33.4855C72.7745 33.6832 72.3992 33.5985 72.0437 33.4618C71.605 33.2935 71.1761 33.1111 70.7928 33.2179C70.6117 33.0953 70.51 33.0134 70.3929 32.9604C70.3744 32.9519 70.2863 33.0716 70.2592 33.1541C69.7817 33.3839 69.6387 33.3551 69.2973 32.9609C69.1723 32.8164 69.0675 32.7192 68.8167 32.7475C68.6189 32.7695 68.3996 32.6362 68.1907 32.569C67.768 32.4323 67.344 32.2979 66.9244 32.1534C66.5208 32.0145 66.4505 32.0625 66.4167 32.4419C66.4019 32.6097 66.3138 32.7785 66.2238 32.9293C66.2041 32.9626 66.0358 32.922 65.9354 32.8745C66.116 32.7074 66.4173 32.6458 66.2712 32.3589C66.233 32.2833 66.103 32.2415 66.0069 32.1986C65.9613 32.1782 65.8947 32.1997 65.8424 32.1867C65.7678 32.1686 65.6976 32.137 65.6261 32.111C65.6138 32.1974 65.5762 32.2883 65.594 32.3685C65.6526 32.6277 65.5411 32.8124 65.2816 32.8384C65.1103 32.8559 64.992 32.8164 65.0407 32.6215C65.0635 32.53 65.0801 32.4374 65.0955 32.3448C65.1294 32.1443 65.0426 32.032 64.8213 31.9766C64.5551 31.91 64.3037 31.7869 64.0351 31.7406C63.8897 31.7157 63.637 31.7569 63.5859 31.8445C63.5181 31.9602 63.5853 32.1528 63.6229 32.3064C63.6383 32.3691 63.7214 32.4278 63.7886 32.4668C63.9192 32.5425 64.0302 32.6068 63.9168 32.7712C63.8096 32.9259 63.6826 33.0648 63.4713 32.9801C62.9943 32.7893 62.4318 32.8356 62.0078 32.4668C61.8519 32.3313 61.5241 32.3674 61.2783 32.3109C61.1482 32.281 60.9825 32.2516 60.9098 32.1664C60.7249 31.9518 60.4889 31.8733 60.2141 31.8603C59.9479 31.8479 59.6774 31.8716 59.4143 31.8405C59.2245 31.8185 58.9922 31.8789 58.864 31.64C58.8295 31.5762 58.6077 31.5966 58.4333 31.5734C58.453 31.7598 58.4574 31.8976 58.4832 32.0325C58.6712 33.0089 58.5196 33.9836 58.458 34.9578C58.3569 36.5729 58.2324 38.1868 58.1172 39.8014C58.0907 40.1763 58.0624 40.5519 58.0112 40.9274C57.9545 39.0943 57.8979 37.2618 57.8412 35.4287C57.8079 35.4259 57.7752 35.4237 57.7426 35.4208C57.7031 35.6439 57.6317 35.8664 57.6292 36.0895C57.6181 37.0681 57.6421 38.0473 57.6187 39.0254C57.6107 39.3552 57.5577 39.7037 57.4271 40.008C57.1221 40.7202 57.1597 41.4678 57.0771 42.2025C56.9483 43.3523 56.851 44.5049 56.7062 45.6569C56.6612 45.0035 56.6039 44.3507 56.5737 43.6968C56.4856 41.7609 56.4098 39.8251 56.3253 37.8892C56.3204 37.778 56.297 37.6645 56.2613 37.5577C56.037 36.8931 55.9778 36.2131 56.0197 35.5231C56.0302 35.3457 56.037 35.1645 56.082 34.9933C56.3081 34.1282 56.1577 33.2501 56.2015 32.3787C56.2218 31.98 56.1824 31.5954 56.0099 31.221C55.9279 31.0426 55.8589 30.9251 55.6167 30.9855C55.5249 31.0081 55.4165 30.9759 55.2821 30.9658C55.2821 31.4046 55.2821 31.8332 55.2821 32.2612C55.2563 32.2624 55.2298 32.2635 55.2039 32.2641C55.1842 31.8535 55.1644 31.4435 55.1423 30.9827C54.8693 31.1307 54.6173 31.2368 54.4035 31.3887C53.9296 31.727 53.3565 31.7344 52.8088 31.8264C52.7551 31.8354 52.6535 31.7942 52.6356 31.7536C52.5419 31.5424 52.3405 31.5186 52.1383 31.4757C51.6491 31.3729 51.1672 31.212 50.6724 31.1691C50.2368 31.1312 49.7876 31.2216 49.3439 31.2566C49.2749 31.2623 49.2059 31.2792 49.1375 31.2781C48.9095 31.2741 48.6766 31.2329 48.4554 31.2656C48.1861 31.3057 47.9458 31.3639 47.8719 31.0002C47.8392 31.0087 47.8072 31.0172 47.7745 31.0256C47.663 31.6005 47.4719 32.1737 47.4547 32.7514C47.4097 34.2846 47.4282 35.8195 47.4467 37.3533C47.4516 37.7785 47.382 38.1705 47.17 38.5466C46.9944 38.8583 46.8884 39.1847 46.9081 39.5461C46.9821 40.9076 46.7196 42.2455 46.5483 43.5895C46.5323 43.7171 46.5206 43.8447 46.4423 43.9746C46.4096 43.5037 46.3634 43.0332 46.3462 42.5623C46.2747 40.5598 46.2205 38.5573 46.1373 36.5554C46.1262 36.2832 45.9851 36.0161 45.9044 35.7461C45.8699 35.7523 45.836 35.7585 45.8015 35.7642C45.7109 37.0529 45.6203 38.3416 45.5297 39.6302C45.5223 39.6302 45.5149 39.6308 45.5069 39.6308C45.4576 38.9294 45.4126 38.2275 45.3572 37.5267C45.282 36.574 45.3221 35.6095 44.9517 34.6873C44.8821 34.5145 44.9807 34.2846 45.0029 34.0808C45.0392 33.7464 45.1015 33.4121 45.1076 33.0773C45.1218 32.2776 45.1113 31.4774 45.1082 30.6772C45.107 30.2988 44.6326 29.8877 44.2394 29.8233C43.4797 29.6997 42.7828 29.8623 42.0828 30.0995C41.8492 30.1786 41.583 30.174 41.3359 30.2243C41.2102 30.2497 41.0808 30.2955 40.9767 30.3632C40.7955 30.4807 40.636 30.4897 40.4862 30.3361C40.286 30.1311 40.0598 30.0972 39.7949 30.2209C39.7419 30.2458 39.671 30.2661 39.6168 30.2542C39.5028 30.2294 39.3894 30.1904 39.2883 30.1379C39.2692 30.1277 39.2871 29.9882 39.321 29.9736C39.4418 29.9227 39.5817 29.8612 39.7043 29.8753C39.968 29.9047 40.233 29.9594 40.4838 30.0402C40.6877 30.1057 40.7801 30.0007 40.7758 29.877C40.7709 29.7257 40.7025 29.5608 40.6107 29.432C40.5565 29.3563 40.403 29.3416 40.2952 29.2965C40.1744 29.2462 40.0537 29.1457 39.9366 29.1502C39.6513 29.1615 39.4473 29.0745 39.2951 28.7939C39.236 29.1282 39.4116 29.2795 39.6242 29.4405C39.5675 29.4269 39.5114 29.4049 39.4541 29.4021C39.3352 29.3953 39.2008 29.3665 39.0979 29.4043C38.7714 29.5235 38.4565 29.6697 38.1213 29.8115C38.3265 29.5139 38.5193 29.2281 38.7282 28.9187ZM46.6487 10.6506C46.6894 10.6562 46.7301 10.6619 46.7707 10.6681C46.7707 14.6561 46.7707 18.6436 46.7707 22.6317C46.8336 22.3792 46.8681 22.1268 46.8755 21.8738C46.9297 19.9837 46.9765 18.0936 47.0289 16.2035C47.0831 14.2478 47.1435 12.2922 47.1947 10.336C47.1971 10.2383 47.1706 10.0921 47.0998 10.0486C46.7904 9.85885 46.5427 9.63353 46.3745 9.32407C46.3388 9.25799 46.1773 9.19983 46.0911 9.21564C45.8951 9.25178 45.6881 9.30713 45.5254 9.40765C45.2204 9.59626 44.9437 9.51607 44.7059 9.34778C44.4736 9.18345 44.3842 8.94119 44.5759 8.61478C44.9493 8.68763 45.3479 8.74354 45.7312 8.84745C46.043 8.93215 46.1397 8.89601 46.1515 8.50635C46.2439 8.65149 46.3326 8.72829 46.3363 8.80848C46.3468 9.0259 46.5193 9.12528 46.6851 9.13376C46.7541 9.13714 46.8903 8.90448 46.9063 8.77008C46.9691 8.24658 46.9962 7.72027 47.0363 7.19451C47.0412 7.12901 47.0425 7.06237 47.0548 6.99799C47.0653 6.94378 47.0887 6.89182 47.1263 6.77832C47.1749 7.53899 47.1293 8.24094 47.2526 8.9282C47.2908 8.92876 47.329 8.92933 47.3672 8.92989C47.4054 8.75144 47.4436 8.57299 47.4818 8.39454C47.4941 8.93441 47.5422 9.45113 48.1904 9.7397C48.0592 9.8374 47.984 9.93396 47.886 9.95937C47.6198 10.0288 47.5995 10.1892 47.5995 10.4072C47.5977 12.5808 47.5835 14.7538 47.5742 16.9274C47.5718 17.5001 47.5736 18.0727 47.5736 18.6453C47.6063 18.6459 47.6395 18.647 47.6722 18.6476C47.7653 16.0239 47.8583 13.4002 47.9538 10.7037C48.0062 10.8449 48.0327 10.9149 48.0863 11.0589C48.1294 10.8471 48.151 10.7116 48.1855 10.5789C48.228 10.4185 48.2588 10.2502 48.3365 10.1039C48.4468 9.895 48.5946 9.70299 48.7351 9.49122C48.5891 9.41725 48.5071 9.37941 48.4301 9.33536C48.1689 9.18627 48.1134 9.00557 48.2077 8.7441C48.2748 8.55887 48.3309 8.36404 48.3463 8.17035C48.3734 7.81909 48.5829 7.60958 48.9015 7.45485C49.2207 7.30012 49.3877 7.02397 49.3538 6.71733C49.2669 5.93406 49.0297 5.20727 48.2021 4.78317C48.0598 4.71032 47.9366 4.60584 47.7967 4.52735C47.7123 4.47991 47.6155 4.43191 47.52 4.42287C47.183 4.39182 46.8447 4.3681 46.5064 4.36132C46.3751 4.3585 46.242 4.40819 46.1096 4.43417C46.1157 4.45563 46.1213 4.47709 46.1274 4.49855C46.2272 4.51041 46.3271 4.52227 46.4016 4.5313C46.1231 4.63295 45.8366 4.7538 45.5383 4.84303C44.5703 5.13329 43.9954 6.35139 44.598 7.25437C44.6443 7.32327 44.6689 7.40967 44.6806 7.49043C44.7182 7.74794 44.6455 8.04498 45.0164 8.17825C44.733 8.14042 44.4009 8.21722 44.3442 7.82982C44.285 7.86257 44.2253 7.87782 44.2216 7.90041C44.1624 8.2607 44.1069 8.62212 44.0626 8.98411C44.0576 9.02646 44.1211 9.07785 44.1575 9.12246C44.3491 9.35682 44.6738 9.50929 44.6843 9.85603C44.6855 9.88653 44.7496 9.93057 44.7928 9.94243C44.9696 9.98987 44.9813 10.1079 44.985 10.2502C45.006 11.012 45.0337 11.7733 45.0633 12.5351C45.0774 12.9061 45.1009 13.2771 45.12 13.6481C45.2235 12.548 45.2882 11.4491 45.3615 10.3507C45.3689 10.2389 45.425 10.1294 45.478 9.95486C45.5396 10.1514 45.5741 10.2626 45.6086 10.3733C45.6647 9.98874 45.8495 9.71372 46.1952 9.51889C46.5557 9.99326 46.5772 10.2971 46.2303 10.7285C46.181 10.6478 46.1391 10.5794 46.0978 10.5111C46.067 10.6122 46.0584 10.7302 46.1182 10.785C46.3135 10.964 46.3332 11.1803 46.3369 11.409C46.3394 11.5479 46.3511 11.6863 46.3591 11.8252C46.377 11.8246 46.3955 11.8241 46.4133 11.8229C46.4928 11.4333 46.5705 11.0419 46.6487 10.6506ZM21.2038 10.8477C21.242 10.8499 21.2809 10.8522 21.3191 10.855C21.3363 10.6726 21.3536 10.4902 21.3714 10.3078C21.4103 10.3089 21.4491 10.3101 21.4879 10.3112C21.4879 10.5568 21.4737 10.8036 21.491 11.0487C21.5169 11.418 21.5773 11.767 22.0037 11.9686C22.2039 12.0635 22.3111 12.0652 22.4066 11.8811C22.2957 11.7716 22.1885 11.6665 22.0819 11.5609C22.0973 11.5389 22.1127 11.5174 22.1281 11.4954C22.2871 11.5688 22.4609 11.6225 22.6014 11.7185C22.955 11.9602 23.3026 12.2109 23.6335 12.478C23.7894 12.604 23.896 12.7801 24.0352 12.9247C24.1184 13.0111 24.2219 13.08 24.3168 13.1568C24.3378 13.1416 24.3587 13.1258 24.3803 13.1105C24.4086 13.4555 24.4364 13.8012 24.4647 14.1462C24.5485 13.8813 24.5516 13.6137 24.6206 13.3612C24.6607 13.2138 24.7796 13.0529 24.9158 12.9738C24.9712 12.9417 25.1955 13.0879 25.291 13.1924C25.5597 13.4877 25.7371 13.8158 25.7039 14.2281C25.6761 14.5737 25.7137 14.9238 25.7168 15.2717C25.7205 15.6506 25.7174 16.0295 25.7174 16.4085C25.747 16.4079 25.776 16.4073 25.8055 16.4062C25.8548 15.4953 25.9029 14.5839 25.9547 13.673C25.9805 13.2178 26.1697 13.0354 26.6429 13.0117C26.6429 12.9287 26.667 12.8377 26.6392 12.7621C26.4624 12.2798 26.7323 11.9144 26.9418 11.4994C27.1303 11.125 27.2523 10.6624 27.2031 10.2598C27.0958 9.38167 26.4174 8.73224 25.6977 8.2799C24.8381 7.73947 23.814 7.37466 22.719 7.86879C22.647 7.90154 22.5558 7.89872 22.4837 7.93147C22.0911 8.11049 21.7036 8.26917 21.6259 8.75596C21.5631 9.15126 21.3665 9.52793 21.2802 9.9221C21.2137 10.2231 21.2266 10.5382 21.2038 10.8477ZM34.1346 6.31299C34.1574 6.29887 34.1802 6.28532 34.2036 6.2712C34.5018 6.44118 34.8025 6.60834 35.0964 6.78453C35.1254 6.80203 35.1254 6.87093 35.1254 6.91611C35.1279 7.26736 35.1278 7.61805 35.1278 7.96931C35.1278 9.67193 35.1278 11.3751 35.1278 13.0777C35.1494 13.0777 35.1716 13.0783 35.1932 13.0783C35.2289 11.6716 35.2646 10.2649 35.3004 8.85874C35.317 8.8593 35.3343 8.85987 35.3509 8.85987C35.4199 12.5808 35.4889 16.3023 35.5579 20.0232C35.6442 16.9845 35.6824 13.9457 35.7391 10.9081C35.7631 9.62111 35.8174 8.33411 35.8771 7.04769C35.9006 6.54904 36.1538 6.05548 35.8993 5.55231C35.8833 5.52069 35.8765 5.46986 35.8932 5.44219C35.9375 5.36821 35.9967 5.30214 36.0497 5.23325C36.07 5.24906 36.0897 5.26431 36.1101 5.28012C35.9837 5.55514 36.0293 5.71326 36.2894 5.8838C36.3762 5.71834 36.4058 5.47777 36.7281 5.58394C36.7478 5.99053 36.7675 6.39431 36.7909 6.87149C36.9031 6.46998 36.9937 6.1464 37.1003 5.76521C37.2629 5.99279 37.4127 6.15713 37.507 6.34574C37.6148 6.56033 37.7202 6.79243 37.7423 7.02397C37.7799 7.42774 37.7528 7.8366 37.7528 8.2432C37.7929 8.24376 37.8329 8.24432 37.873 8.24489C37.9161 7.26793 37.9611 6.29153 37.9987 5.31457C38.0011 5.2564 37.9549 5.19315 37.9192 5.13837C37.5205 4.52622 37.0177 4.06823 36.2185 3.86606C35.6978 3.73448 35.2067 3.57636 34.6663 3.68479C34.5456 3.70907 34.336 3.78305 34.3373 3.82936C34.3453 4.06146 34.1629 4.04508 34.0187 4.07501C33.792 4.12188 33.5412 4.12075 33.4333 4.38052C33.7371 4.55558 34.0446 4.69281 34.4285 4.66966C34.5671 4.66119 34.7507 4.73686 34.8487 4.8306C35.0428 5.01583 35.2492 5.22195 35.3423 5.45574C35.4199 5.65114 35.4292 5.95044 35.3146 6.11082C35.1038 6.40447 34.6398 6.36494 34.2861 6.09501C34.0119 5.8855 33.9706 5.61895 34.1777 5.3236C34.113 5.2355 34.0563 5.13216 33.9737 5.05141C33.803 4.88368 33.5584 4.91644 33.4376 5.10675C33.3649 5.22082 33.2799 5.32812 33.1998 5.43824C33.217 5.65961 33.2553 5.90018 33.2485 6.14018C33.2417 6.38866 33.0451 6.4649 32.8319 6.32089C32.7808 6.28645 32.7364 6.24296 32.6723 6.18988C32.538 6.63262 31.7813 6.54057 31.8177 7.14708C32.0642 6.66085 32.5799 6.95112 32.9028 6.697C32.941 6.85794 32.9663 6.96524 32.9915 7.07197C33.0057 7.07253 33.0193 7.07253 33.0334 7.0731C33.055 6.90199 33.0766 6.73088 33.1049 6.50951C33.291 6.49031 33.4913 6.48297 33.6854 6.44683C33.9559 6.396 34.1161 6.48523 34.1259 6.73766C34.1413 7.13239 34.1456 7.5277 34.1475 7.923C34.1506 8.49393 34.1481 9.06486 34.1481 9.63523C34.1789 9.63466 34.2103 9.63466 34.2412 9.6341C34.2806 8.84462 34.3262 8.05571 34.3576 7.26623C34.373 6.937 34.5332 6.57897 34.1346 6.31299ZM59.2794 12.4791C59.5517 12.2832 59.5893 12.0364 59.3317 11.7269C59.0156 11.3475 58.689 10.9759 58.3637 10.6037C58.3206 10.5546 58.2614 10.5128 58.201 10.4812C57.3901 10.0548 56.5835 10.2045 55.7837 10.5094C55.6987 10.5416 55.6432 10.6387 55.5372 10.7421C55.6586 10.7421 55.7067 10.7421 55.7547 10.7421C55.5181 10.9736 55.2353 11.1272 54.9981 11.3266C54.8083 11.4864 54.6388 11.6874 54.5285 11.8992C54.4645 12.0223 54.4854 12.2267 54.555 12.3549C54.6764 12.578 54.8644 12.7705 55.0184 12.9682C55.0264 12.9422 55.0449 12.8829 55.0634 12.8236C55.0967 12.8174 55.1293 12.8112 55.1626 12.805C55.2254 13.0168 55.3099 13.2257 55.3462 13.4414C55.3863 13.682 55.3881 13.9288 55.3961 14.1727C55.4035 14.3952 55.398 14.6177 55.398 14.8402C55.6124 13.992 55.3894 13.0868 55.9544 12.3278C55.6136 12.347 55.3037 12.3639 54.974 12.3826C55.1521 11.5163 55.3857 11.3209 56.4061 11.1509C56.4603 11.4243 56.5145 11.6976 56.5675 11.9647C56.8867 11.6648 56.9853 11.6795 57.1923 12.0658C57.2324 12.1409 57.278 12.2182 57.2952 12.299C57.3279 12.452 57.2416 12.5192 57.0845 12.4679C56.9957 12.4385 56.923 12.3679 56.8781 12.3391C56.7524 12.4057 56.6254 12.4729 56.5311 12.5226C56.3771 12.7864 56.2298 13.0388 56.0826 13.2912C56.39 13.1099 56.6957 13.0004 57.029 13.1015C57.3038 13.1856 57.713 13.1122 57.7611 13.5662C57.811 13.3985 57.8418 13.2551 57.8042 13.1286C57.7463 12.9366 57.7161 12.7756 57.9687 12.7C58.1887 12.6344 58.4068 12.7672 58.4432 13.019C58.4838 13.2974 58.4802 13.5815 58.4968 13.8633C58.5029 13.9615 58.5122 14.0598 58.5202 14.1586C58.543 14.1564 58.5652 14.1535 58.588 14.1513C58.6022 13.9389 58.6163 13.726 58.6305 13.5137C58.6459 13.5137 58.6619 13.5137 58.6773 13.5143C58.7199 15.1813 58.7624 16.8484 58.8049 18.5154C58.8893 17.3131 58.9343 16.1103 58.9971 14.9086C59.0292 14.293 58.983 13.669 59.2695 13.0783C59.3416 12.9264 59.2794 12.7208 59.2794 12.4791ZM48.3574 27.1861C48.3248 27.2211 48.2927 27.2556 48.2607 27.2906C48.3007 27.3369 48.3309 27.3996 48.3833 27.4272C48.668 27.5769 48.8356 27.8084 49.0241 28.0496C49.1776 28.2455 49.4992 28.3517 49.7691 28.4426C49.9768 28.5126 50.2189 28.4957 50.4814 28.5211C50.3446 28.821 50.4488 28.9277 50.7347 28.9605C50.8314 28.9718 50.9577 29.092 50.991 29.1863C51.1155 29.5387 51.1795 29.5839 51.585 29.4856C51.723 29.4523 51.8537 29.3767 51.9923 29.3637C52.24 29.3405 52.529 29.275 52.7348 29.3603C53.5118 29.6822 54.2901 29.5771 55.0757 29.4913C55.1053 29.057 55.0893 29.0316 54.685 29.1073C54.4657 29.1485 54.3338 29.0807 54.2124 28.9328C54.0843 28.7758 53.9469 28.625 53.8094 28.4748C53.7977 28.4618 53.754 28.4731 53.725 28.4731C53.7016 28.5556 53.6807 28.6301 53.6455 28.7543C53.5377 28.6781 53.4631 28.6273 53.3911 28.5736C53.3387 28.5347 53.2974 28.4725 53.2382 28.4539C52.9314 28.3556 52.6233 28.2602 52.3109 28.1811C52.1772 28.1473 52.0071 28.1072 51.8937 28.1535C51.5961 28.2749 51.3188 28.2399 51.0267 28.1619C50.9454 28.1405 50.8468 28.1552 50.7605 28.1715C49.957 28.3229 49.2232 28.3178 48.7672 27.5334C48.6846 27.3911 48.4967 27.3002 48.3574 27.1861ZM23.3833 24.3936C23.432 24.3941 23.4813 24.3947 23.53 24.3953C23.53 23.8125 23.5176 23.2297 23.5318 22.6475C23.6033 19.685 23.6797 16.7224 23.7616 13.7605C23.7672 13.5628 23.7253 13.4081 23.5318 13.3104C23.1498 13.1184 23.029 12.7999 22.9797 12.4278C22.9612 12.29 22.8491 12.1623 22.7794 12.0302C22.7406 12.037 22.7018 12.0432 22.663 12.05C22.419 12.5723 22.1928 13.0981 22.4023 13.7136C22.4288 13.6549 22.451 13.6069 22.483 13.5357C22.5305 13.6001 22.5829 13.6391 22.5829 13.6775C22.5866 15.7556 22.5866 17.8344 22.5866 19.9125C22.6198 19.9125 22.6525 19.9131 22.6858 19.9131C22.7283 17.722 22.7708 15.5309 22.8139 13.3313C23.0758 13.3533 23.1183 13.4827 23.119 13.6492C23.1202 14.0445 23.1294 14.4393 23.1319 14.8346C23.1344 15.2355 23.1325 15.6365 23.1325 16.038C23.1769 16.0374 23.2212 16.0374 23.2656 16.0369C23.2656 15.6427 23.2656 15.248 23.2656 14.8538C23.305 14.8544 23.3451 14.8555 23.3845 14.856C23.3833 18.0348 23.3833 21.2142 23.3833 24.3936ZM56.4849 25.3417C56.4948 25.3429 56.504 25.3434 56.5139 25.3446C56.5287 25.1887 56.5539 25.0323 56.5558 24.8764C56.6002 21.9049 56.6353 18.9333 56.6938 15.9623C56.7012 15.5981 56.8368 15.2355 56.9126 14.8724C56.9619 14.8724 57.0112 14.8724 57.0611 14.8719C57.1178 15.2638 57.1751 15.6551 57.2318 16.047C57.3008 15.6862 57.3223 15.3225 57.3704 14.9617C57.3907 14.8052 57.4647 14.655 57.5337 14.4427C57.2515 13.9429 56.5342 13.9932 55.9341 14.5861C56.0018 14.8193 56.0604 15.0198 56.1183 15.2192C56.1423 15.1954 56.1781 15.1593 56.2138 15.1237C56.2452 15.1265 56.2767 15.1294 56.3081 15.1322C56.3672 18.5352 56.4264 21.9382 56.4849 25.3417ZM58.331 30.06C58.2528 30.5705 58.2824 30.6089 58.7525 30.6467C58.864 30.6557 58.9786 30.6416 59.0896 30.6557C59.4821 30.7066 59.8733 30.7698 60.2659 30.8184C60.3669 30.8308 60.5142 30.8427 60.5659 30.7918C60.6343 30.7246 60.6658 30.5891 60.6491 30.4925C60.6054 30.2384 60.4181 30.1283 60.041 30.1554C59.4728 30.1966 58.9041 30.3271 58.331 30.06ZM32.5805 26.2046C32.3223 26.2125 32.1683 26.3735 32.1701 26.6033C32.172 26.8484 32.4049 27.1776 32.5774 27.1805C32.7839 27.1833 32.9712 26.8704 32.9515 26.5158C32.9391 26.2984 32.7703 26.2159 32.5805 26.2046ZM55.5606 27.578C55.5841 27.5679 55.6069 27.5577 55.6303 27.5475C55.6303 26.4593 55.6303 25.3705 55.6303 24.2693C55.6136 24.2976 55.597 24.3123 55.5958 24.3286C55.536 25.3491 55.475 26.369 55.4257 27.39C55.4226 27.4504 55.5132 27.5153 55.5606 27.578ZM33.8505 20.4197C33.7759 19.93 33.7051 19.4647 33.6342 18.9994C33.6133 19 33.5923 19.0011 33.572 19.0016C33.572 19.4738 33.572 19.9459 33.572 20.4383C33.6441 20.4338 33.7285 20.4281 33.8505 20.4197ZM36.9475 29.4213C37.0516 28.6668 36.9961 28.2337 36.7903 28.1552C36.7903 28.4991 36.7848 28.8357 36.7953 29.1717C36.7983 29.2343 36.868 29.2948 36.9475 29.4213ZM32.0432 7.04543C32.0093 7.0618 31.976 7.07818 31.9422 7.09456C31.9687 7.41419 31.9945 7.73325 32.0266 8.1263C32.2176 7.81119 31.9231 7.39612 32.5158 7.29729C32.3168 7.19113 32.18 7.11828 32.0432 7.04543ZM21.2106 17.7406C21.2513 17.744 21.292 17.7468 21.3326 17.7502C21.3326 17.2821 21.3326 16.8145 21.3326 16.3463C21.3265 16.3452 21.3209 16.3441 21.3148 16.343C21.2796 16.8088 21.2451 17.2747 21.2106 17.7406Z" fill="white"/>
<path d="M6.90581 18.7127C6.98591 18.9465 6.86575 19.0454 6.63468 19.086C6.5478 19.1013 6.46092 19.1436 6.38697 19.1905C6.18918 19.3159 5.99631 19.3209 5.78373 19.2193C5.63091 19.1464 5.46639 19.0934 5.30433 19.0374C4.81384 18.8675 4.69246 18.61 4.7627 18.1384C4.82309 17.7363 4.99377 17.4952 5.43866 17.3924C5.61058 17.3529 5.70609 17.3636 5.85027 17.4455C6.16145 17.6217 6.4375 17.8131 6.66303 18.0893C6.8257 18.2881 6.96434 18.4626 6.90581 18.7127Z" fill="white"/>
<path d="M76.7655 33.5428C77.3392 33.5473 77.9018 33.5524 78.3652 33.9759C78.4884 34.0883 78.7306 34.1001 78.9222 34.1385C79.2568 34.2052 79.5994 34.243 79.9297 34.3243C79.9981 34.3413 80.0899 34.5497 80.0628 34.5762C79.9636 34.6728 79.8101 34.8004 79.6924 34.7885C79.1767 34.736 78.6572 34.6705 78.1581 34.5457C77.8895 34.4785 77.5962 34.326 77.4304 34.1295C77.264 33.9324 77.1125 33.78 76.8512 33.719C76.7982 33.7065 76.7545 33.6636 76.7058 33.6348C76.7255 33.6032 76.7452 33.5733 76.7655 33.5428Z" fill="white"/>
<path d="M5.20821 16.7726C4.84835 16.7218 4.59757 16.519 4.51068 16.1768C4.43243 15.8719 4.70725 15.7742 4.90258 15.6432C5.04862 15.5449 5.21622 15.463 5.3869 15.4082C5.52616 15.3636 5.70116 15.3247 5.83056 15.3648C6.00001 15.4173 6.07457 15.5585 6.11893 15.751C6.19904 16.0972 6.0302 16.3152 5.78434 16.4998C5.62044 16.6224 5.40231 16.6839 5.20821 16.7726Z" fill="white"/>
<path d="M12.2377 21.8667C11.9339 22.2083 11.5279 22.3732 11.0386 22.3721C10.5863 22.371 10.3657 22.1259 10.4951 21.7351C10.5222 21.6521 10.6418 21.573 10.7385 21.5369C10.8765 21.4849 11.0374 21.4386 11.1809 21.4533C11.4009 21.4759 11.6221 21.5352 11.8273 21.6126C11.9764 21.6685 12.1009 21.7792 12.2377 21.8667Z" fill="white"/>
<path d="M66.774 33.2617C67.1425 33.43 67.5012 33.5531 67.8 33.7524C67.9054 33.823 67.89 34.0822 67.8709 34.2494C67.8653 34.3007 67.6318 34.3951 67.5572 34.3629C67.2824 34.2448 66.9953 34.115 66.7839 33.9235C66.6588 33.81 66.6564 33.5751 66.6237 33.3904C66.6175 33.3548 66.7254 33.3018 66.774 33.2617Z" fill="white"/>
<path d="M3.84644 16.4992C3.6585 16.4969 3.22408 16.2327 3.16247 16.083C3.09777 15.9254 3.2247 15.7131 3.3997 15.6871C3.72874 15.638 4.15884 15.948 4.18842 16.2564C4.20629 16.4405 4.11941 16.502 3.84644 16.4992Z" fill="white"/>
<path d="M75.0661 32.4869C74.8085 32.6811 74.5553 32.6534 74.3113 32.6009C74.0857 32.5524 73.8658 32.4773 73.6495 32.3993C73.5959 32.3801 73.5663 32.3056 73.525 32.2564C73.5873 32.218 73.647 32.1503 73.7117 32.1458C74.1954 32.1141 74.6206 32.2734 75.0661 32.4869Z" fill="white"/>
<path d="M28.9894 26.4556C28.5753 26.2748 28.1631 26.1009 27.7582 25.9129C27.6794 25.8762 27.6313 25.7847 27.598 25.6892C28.2136 25.7265 28.5975 26.0981 28.9931 26.4493C28.9955 26.4505 28.9789 26.4702 28.9894 26.4556Z" fill="white"/>
<path d="M66.087 34.0198C65.7463 33.9278 65.4049 33.8357 65.0641 33.7437C65.3451 33.5641 65.8504 33.6883 66.1172 33.9244C66.1073 33.9566 66.0975 33.9882 66.087 34.0198Z" fill="white"/>
<path d="M78.7762 33.9468C79.2778 33.543 79.5939 34.0575 79.9968 34.0338C79.9919 34.066 79.987 34.0976 79.9821 34.1298C79.5957 34.0711 79.2087 34.0129 78.7762 33.9468Z" fill="white"/>
<path d="M13.9698 16.3733C13.727 16.3524 13.4756 16.3716 13.5206 16.0756C13.5329 15.9943 13.6703 15.9294 13.751 15.8565C13.8121 15.9277 13.8934 15.9915 13.9291 16.0717C13.9649 16.1524 13.9556 16.2501 13.9698 16.3733Z" fill="white"/>
<path d="M76.4599 32.8967C76.0816 33.0909 75.7938 32.9503 75.5172 32.7679C75.5239 32.7419 75.5301 32.7165 75.5369 32.6905C75.8444 32.7594 76.1524 32.8283 76.4599 32.8967Z" fill="white"/>
<path d="M47.3056 5.48695C46.7418 5.56488 46.1786 5.64282 45.6172 5.72018C45.5501 5.43613 45.5501 5.43613 45.0682 5.63773C45.1921 5.26107 45.4527 5.0301 45.8501 4.93635C46.1126 4.87423 46.3727 4.75225 46.6345 4.75C47.0252 4.74661 47.4257 4.79235 47.8059 4.87706C48.1528 4.95442 48.3728 5.20403 48.4998 5.52987C47.9495 5.21871 47.3758 5.17862 46.7091 5.39773C46.95 5.41015 47.1281 5.41862 47.3068 5.42766C47.3062 5.44799 47.3062 5.46775 47.3056 5.48695Z" fill="white"/>
<path d="M22.8115 8.90126C22.8866 8.84649 22.9631 8.79114 23.0419 8.73411C22.8238 8.58389 22.7646 8.60818 22.2951 9.02946C22.1226 8.76291 22.2779 8.38624 22.6445 8.13776C23.005 7.89324 23.4098 7.82999 23.8362 7.8859C23.9594 7.90228 24.0623 8.0316 24.188 8.05983C24.3538 8.0971 24.5479 8.0491 24.7019 8.10388C25.0969 8.24393 25.4463 8.45288 25.6774 8.86682C25.3797 8.78211 25.1302 8.71095 24.8806 8.6398C24.8658 8.66069 24.8511 8.68159 24.8363 8.70305C24.893 8.76912 24.9496 8.83519 25.0063 8.90126C24.7673 9.08197 22.9606 9.09383 22.8115 8.90126Z" fill="white"/>
<path d="M22.8078 11.2761C23.0093 11.3534 23.212 11.4268 23.411 11.5099C23.5694 11.5759 23.7179 11.6618 23.8775 11.7245C24.0876 11.8075 24.2842 11.7572 24.3698 11.5675C24.4727 11.3393 24.66 11.2789 24.8905 11.2428C24.9866 11.2275 25.076 11.1806 25.2078 11.1693C25.1025 11.2676 24.9774 11.354 24.8967 11.4664C24.7839 11.6234 24.6563 11.7917 24.6194 11.9695C24.5528 12.2937 24.2534 12.4654 23.9576 12.2683C23.5386 11.9887 23.1522 11.6691 22.7517 11.3664C22.7696 11.3365 22.7887 11.306 22.8078 11.2761Z" fill="white"/>
<path d="M26.296 11.6733C26.2301 12.3171 25.8191 12.6554 25.2405 12.5904C25.1438 12.5797 25.0316 12.5046 24.9786 12.4289C24.9546 12.395 25.039 12.251 25.1092 12.216C25.4857 12.0302 25.8739 11.8636 26.296 11.6733Z" fill="white"/>
<path d="M37.2291 4.88321C36.9419 4.81545 36.6548 4.74825 36.3676 4.68048C36.3615 4.69121 36.3547 4.70194 36.3485 4.71267C36.4342 4.75107 36.5204 4.78891 36.6061 4.82731C36.6024 4.83973 36.5993 4.85272 36.5956 4.86514C36.3898 4.84199 36.1772 4.83917 35.9807 4.78665C35.8901 4.76236 35.8303 4.64095 35.7564 4.56358C35.7317 4.53761 35.712 4.49921 35.6806 4.48791C35.4477 4.40151 35.208 4.32979 34.9806 4.23322C34.9091 4.20273 34.8093 4.08527 34.8265 4.05025C34.8641 3.97289 34.9689 3.86842 35.0447 3.86898C35.7779 3.87689 36.4434 4.09374 37.0393 4.48001C37.1459 4.5489 37.205 4.67992 37.2857 4.78269C37.2666 4.81601 37.2482 4.8499 37.2291 4.88321Z" fill="white"/>
<path d="M57.5904 11.2257C58.6545 11.3979 59.0766 11.6718 59.0341 12.2975C58.5498 12.4308 58.0994 12.3698 57.7031 12.0677C57.53 11.935 57.4801 11.455 57.5904 11.2257Z" fill="white"/>
<path d="M57.9077 10.6161C57.7876 10.5969 57.6884 10.5574 57.6015 10.5727C57.4906 10.5924 57.3907 10.6585 57.2841 10.7014C57.0703 10.7867 56.862 10.9166 56.6396 10.9414C56.3993 10.968 56.1454 10.8957 55.9039 10.8669C56.1374 10.401 57.5448 10.1915 57.9077 10.6161Z" fill="white"/>
<path d="M4.77932 50.5906C4.6413 50.4562 4.59816 51.0017 4.58091 51.2231C4.58091 51.2784 4.58954 51.3259 4.59816 51.3812C4.61542 51.5235 4.64992 51.6737 4.61542 51.7844C4.60679 51.8081 4.53778 51.8872 4.43426 51.99C4.16683 52.2667 3.67511 52.7331 3.62335 52.741C3.13164 52.8438 3.25241 52.5908 3.11438 52.6224C2.96773 52.6541 2.81245 52.8201 2.72618 52.8438C2.61404 52.8675 1.41494 52.8675 1.2424 52.8596C0.99223 52.8438 0.793818 52.7331 0.526392 52.7885C0.319353 52.8359 -0.00845976 52.7806 0.000166873 52.5276C0.000166873 52.4801 0.01742 52.4406 0.0346733 52.4011C0.129566 52.243 0.371112 52.1876 0.535018 52.1165C0.75931 52.3853 0.750685 52.0848 0.811071 52.0611C0.905964 52.0137 1.03536 52.0058 1.03536 51.8793C1.05262 51.0808 1.19064 49.7209 1.16476 49.0963C1.30279 49.2228 1.44082 49.8237 1.57022 50.0451L1.43219 50.7803L1.47532 51.1124L1.52708 51.5077C1.54433 51.6579 1.69961 51.9346 1.80313 52.0453C1.8894 52.1481 2.32936 52.156 2.47601 52.156C2.67442 52.156 2.87284 52.1006 3.06262 52.0532C3.26104 52.0137 3.27829 51.9109 3.27829 51.9109C3.52846 51.737 3.98567 51.5551 4.05469 51.2468C4.09782 51.0491 4.02881 50.9068 4.26173 50.812C4.28761 50.4483 4.23585 50.0846 4.23585 49.7209C4.24447 49.041 4.28761 48.4243 3.92529 47.863C3.84765 47.7444 3.74413 47.6258 3.63198 47.523C3.83039 47.6258 4.07194 47.7365 4.23585 47.8867C4.33074 47.9658 4.44289 48.7643 4.62404 48.8513C4.72756 49.0094 4.86559 49.7605 4.71894 49.9028C4.83108 49.9818 4.9001 49.9028 4.90872 50.0609C4.77932 50.3455 4.66718 50.3218 4.77932 50.5906ZM1.51846 47.4604C1.40631 47.5315 1.31142 47.6264 1.30279 47.7766C1.30279 47.8873 1.30279 47.8003 1.30279 47.9189V48.1007C1.29416 48.2193 1.29416 48.1798 1.29416 48.3063V48.5198C1.27691 48.5356 1.25966 48.5593 1.2424 48.583C1.2424 48.5909 1.23378 48.5988 1.22515 48.5988C1.18202 48.5514 1.15614 48.4802 1.13888 48.4012C1.13026 48.3063 1.13888 48.2193 1.13888 48.1245C1.13888 48.0849 1.14751 48.0375 1.14751 47.9901C1.14751 47.911 1.15614 47.824 1.14751 47.7529C1.13888 47.6817 1.12163 47.6106 1.09575 47.5631C1.06987 47.5394 1.05262 47.5157 1.01811 47.4999C0.949096 47.4683 0.880084 47.4445 0.811071 47.4208C0.673045 47.3734 0.526392 47.3418 0.414246 47.3655C0.371112 47.3734 0.207207 47.405 0.207207 47.318C0.207207 47.3022 0.215834 47.2864 0.22446 47.2785C0.27622 47.2232 0.448752 47.2627 0.500512 47.2706C0.535018 47.2706 0.811071 47.1995 0.845577 47.1836C0.905964 47.1678 1.02674 47.1441 1.16476 47.1283C1.19927 47.1283 1.2424 47.1283 1.28554 47.1204C1.42356 47.1125 1.57021 47.1204 1.68236 47.1441C1.71687 47.152 1.76863 47.1678 1.79451 47.1916C1.82039 47.2074 1.83764 47.2311 1.83764 47.2627C1.83764 47.2627 1.83764 47.2627 1.83764 47.2706C1.83764 47.3175 1.66511 47.3655 1.51846 47.4604Z" fill="white"/>
<path d="M8.40251 49.4369C8.54054 49.4686 8.8856 49.6504 8.98912 49.7374C9.02363 49.7611 9.015 49.8481 9.03225 49.8876C9.08401 49.9666 9.36006 49.9746 9.46358 50.3857C9.52397 50.6308 9.41182 50.6228 9.41182 50.7256C9.41182 50.8126 9.51535 50.8679 9.51535 50.9391C9.49809 51.0972 9.26517 51.2474 9.04951 51.2316L8.26448 51.1605C8.08332 51.1526 7.9453 51.2237 7.77276 51.2158C7.57435 51.2079 7.36731 51.1288 7.16027 51.1288C7.07401 51.1288 6.97911 51.1446 6.87559 51.1684C6.67718 51.2079 6.46152 51.2791 6.29761 51.2711C6.23722 51.2711 6.18546 51.2474 6.12508 51.2474C5.98705 51.2474 5.92666 51.4293 5.92666 51.532C5.92666 51.6664 6.01293 51.8167 6.06469 51.9432C6.06469 52.038 6.33211 52.0934 6.21134 52.2357C6.10782 52.3385 6.45289 52.465 6.60817 52.4887C6.87559 52.5282 6.82383 52.6863 7.0395 52.797C7.20341 52.8761 7.31555 52.8128 7.47946 52.8207C7.54847 52.8207 7.60023 52.8524 7.67787 52.8365C7.80727 52.8207 7.91942 52.7496 8.04019 52.7259C8.14371 52.71 8.2386 52.7417 8.3335 52.6863C8.54053 52.5598 8.70444 52.3859 8.91148 52.2673C9.1444 52.1408 8.98912 52.1962 9.05813 52.0934C9.18753 51.9036 9.64474 51.8957 9.64474 52.1724C9.64474 52.2199 9.47221 52.5282 9.43771 52.5835C9.38595 52.6547 8.95461 52.9709 8.69581 53.1291C8.61817 53.1765 8.55779 53.2081 8.52328 53.216C8.44564 53.2318 8.38525 53.2397 8.3335 53.2397C8.2041 53.2477 8.14371 53.2239 7.98843 53.2397C7.90216 53.2477 7.8159 53.2714 7.72963 53.2872C7.71238 53.2951 7.69512 53.2951 7.66924 53.2951H7.66062C7.61749 53.303 7.58298 53.2872 7.54847 53.2872C7.48808 53.2872 7.37594 53.2951 7.23791 53.2951C6.99637 53.2872 6.69443 53.2714 6.59091 53.1923C6.56503 53.1686 6.56503 53.137 6.55641 53.1053C6.54778 53.0816 6.54778 53.0658 6.53053 53.05C6.53053 53.05 6.53053 53.05 6.53053 53.0421C6.50465 53.0184 6.16821 52.8761 6.10782 52.8444C6.01293 52.797 5.97842 52.718 5.95254 52.631C5.92666 52.5598 5.91804 52.4808 5.8749 52.4175C5.78864 52.2831 5.6161 52.2041 5.55572 52.0459C5.53847 52.0143 5.52984 51.959 5.52121 51.8878C5.51259 51.8008 5.51258 51.6902 5.51258 51.5795C5.51258 51.2158 5.56435 50.781 5.65061 50.6545C5.77139 50.4805 5.76276 50.2829 5.90078 50.109C5.93529 50.0615 6.0043 50.022 6.02156 49.9666C6.03881 49.9192 6.01293 49.856 6.04744 49.8164C6.07332 49.7848 6.0992 49.7532 6.1337 49.7295C6.19409 49.6741 6.27173 49.6188 6.358 49.5634C6.64267 49.3895 7.02225 49.2551 7.27242 49.2551C7.66062 49.2545 8.04019 49.3415 8.40251 49.4369ZM7.57435 49.4522C7.5571 49.4759 7.53984 49.4917 7.50534 49.4996C7.37594 49.5233 7.23791 49.5154 7.10851 49.5312C6.77208 49.5787 6.46152 49.7842 6.29761 50.053C6.15958 50.2744 6.12508 50.2112 6.04744 50.2981C5.99568 50.3693 5.94392 50.5195 5.94392 50.6065C5.94392 50.812 6.06469 50.9543 6.29761 50.9543C6.44426 50.9543 6.59092 50.9543 6.74619 50.9701C6.88422 50.9781 6.92735 50.986 6.97049 50.986C7.01362 50.986 7.05675 50.9781 7.17753 50.9543C7.2983 50.9385 7.22066 51.0097 7.35869 50.9069C7.57435 50.9227 7.8504 50.9781 8.0747 50.9543C8.16096 50.9385 8.26448 50.8911 8.35075 50.8911C8.47152 50.8832 8.59229 50.9227 8.71307 50.9227C8.92873 50.9227 8.95461 50.7646 8.96324 50.5986C8.97187 50.3377 8.82521 50.0926 8.60092 49.9345C8.42839 49.8001 8.22998 49.6894 8.05744 49.5629C7.9798 49.5075 7.88491 49.4443 7.78139 49.4443C7.64336 49.3415 7.62611 49.4047 7.57435 49.4522Z" fill="white"/>
<path d="M15.0191 52.7013C14.6137 53.2626 14.4325 52.6933 14.0788 52.638C13.9926 52.6222 13.7855 52.638 13.6993 52.6617C13.82 52.7961 13.3283 52.7566 13.3024 52.7566C13.2162 52.7724 13.1558 52.8831 13.0695 52.9068C12.7158 53.0096 12.1292 52.9938 11.7669 52.9463C11.4908 52.9147 11.396 52.7882 11.2062 52.638C11.1026 52.551 10.9646 52.5827 10.887 52.4562C10.7921 52.2901 10.7662 52.1004 10.7662 51.9185C10.7748 51.7841 10.9215 51.4916 10.9991 51.3809C11.2148 51.1042 11.465 50.9461 11.8359 50.9145C12.112 50.8829 12.4139 50.7406 12.6986 50.6931C12.9056 50.6536 13.3628 50.6457 13.5267 50.5587C13.6389 50.4955 13.7251 50.3532 13.8459 50.2741C14.0012 50.1713 14.053 50.2504 14.1651 50.0132C14.1737 50.116 14.2427 50.3848 14.3721 50.4164C14.2082 50.5587 14.5878 51.2465 14.3031 51.4205C14.3118 51.4521 14.4067 51.4521 14.4325 51.4521C14.398 51.5707 14.5102 51.7051 14.5015 51.8158C14.6741 52.0688 14.9588 52.132 15.0882 52.4166C15.1227 52.5036 15.1227 52.6459 15.0191 52.7013ZM14.1824 49.7997C14.1392 49.7286 13.8114 49.3096 13.7597 49.27C13.6389 49.1831 13.4922 49.2147 13.3456 49.1831C13.2248 49.1593 13.1127 49.1119 12.9833 49.1277C12.7503 49.1514 12.1292 49.4598 11.9394 49.5942C11.8359 49.8234 11.4736 49.8709 11.3614 49.7444C11.3097 49.6811 11.3097 49.5784 11.3269 49.5072C11.465 49.0249 11.8618 49.0803 12.2759 48.938C12.5692 48.8352 12.8452 48.7482 13.1644 48.8352C13.544 48.938 13.8977 49.0487 14.1047 49.3728C14.1565 49.4677 14.2945 49.7049 14.1824 49.7918V49.7997ZM13.9236 51.2544C13.8545 51.0726 13.7855 50.9303 13.5612 50.875C13.4922 50.8512 13.3887 50.8987 13.3024 50.8908C13.104 50.875 12.9229 50.8354 12.7158 50.875C12.4915 50.9145 12.2672 50.9856 12.0343 51.0173C11.9567 51.1042 11.7496 51.2782 11.6202 51.3019C11.5167 51.4205 11.3528 51.6418 11.3528 51.8C11.3442 51.9186 11.4391 52.0213 11.5081 52.1241C11.7324 52.4403 12.112 52.5352 12.5002 52.5668C12.5864 52.5748 12.6554 52.6301 12.7503 52.6222C12.8539 52.6064 12.9229 52.5036 13.0091 52.4562C13.2075 52.3297 13.5699 52.3139 13.7424 52.1636C13.9236 51.9897 14.0271 51.7209 14.0185 51.4837C14.0185 51.3968 13.9581 51.3262 13.9236 51.2544Z" fill="white"/>
<path d="M19.3238 53.0653C19.2548 53.0178 19.2203 52.923 19.1599 52.8597C19.1254 52.8281 19.0909 52.8044 19.0478 52.8044C18.996 52.8044 18.5992 53.0178 18.5215 53.0495C18.4439 53.0811 18.211 53.1285 17.9781 53.1681C17.84 53.1918 17.7106 53.2076 17.6071 53.2234C17.5295 53.2313 17.4691 53.2313 17.4346 53.2313C17.3656 53.2313 16.986 53.0811 16.71 52.9546C16.5806 52.8913 16.4684 52.836 16.4253 52.8044C16.2786 52.6858 16.0975 52.4407 15.9853 52.2035C15.9163 52.0691 15.8732 51.9347 15.8559 51.8319C15.8473 51.7529 15.8732 51.6659 15.8904 51.5869C15.899 51.5394 15.9077 51.492 15.8991 51.4366C15.8732 51.3259 15.7438 51.0018 15.7438 50.9465C15.7438 50.7725 15.8991 50.6381 15.9594 50.4879C15.9767 50.4247 15.9681 50.3614 15.9767 50.2982C16.0112 50.061 16.5202 49.5155 16.71 49.3494C16.7531 49.3099 17.6503 49.1518 17.7624 49.1518C17.7969 49.1518 17.8487 49.1597 17.9004 49.1755C18.0988 49.2308 18.3663 49.3415 18.4525 49.4443C18.5215 49.5234 18.5733 49.5076 18.6596 49.5313C18.7631 49.555 18.858 49.721 18.9356 49.721C18.9788 49.721 18.9443 49.7131 18.9788 49.7368C19.1427 49.8791 19.4446 49.2071 19.0995 49.0727C19.1168 48.7565 19.2376 48.4323 19.2548 48.1003C19.2634 48.0291 19.2462 47.958 19.2289 47.8868C19.2289 47.871 19.2289 47.8631 19.2203 47.8552C19.2203 47.8473 19.2203 47.8394 19.2203 47.8394C19.2117 47.7919 19.2031 47.7445 19.2117 47.705C19.3066 47.6575 19.4877 47.705 19.4877 47.8236L19.4791 48.1398L19.4705 48.4798C19.4705 48.5667 19.6258 48.6063 19.6171 48.6932L19.5222 49.4285C19.5136 49.4997 19.7293 49.7131 19.7207 50.2586L19.712 50.4642L19.6861 51.7608V51.9347L19.6775 52.3379V52.4881C19.6689 52.6621 20.0312 52.6621 20.1692 52.6621C20.5919 52.6858 20.7386 53.0653 20.2382 53.1127C20.0916 53.1285 19.4273 53.1285 19.3238 53.0653ZM19.065 50.2428C19.0391 50.1163 18.5043 49.5629 18.3921 49.5471C18.1506 49.5076 17.9091 49.468 17.6675 49.4759C17.4346 49.4838 17.2103 49.5313 17.0033 49.6499C16.9342 49.6894 16.8825 49.7447 16.8394 49.8159C16.7876 49.9029 16.7445 50.0056 16.6927 50.0847C16.6582 50.1242 16.6754 50.2191 16.6496 50.2507C16.5978 50.2982 16.5115 50.2744 16.477 50.3298C16.3908 50.4642 16.3735 51.0176 16.3821 51.3418C16.3908 51.4287 16.3994 51.4999 16.408 51.5394C16.4425 51.745 16.5202 51.9742 16.6668 52.1403C16.8307 52.33 17.3224 52.7649 17.6071 52.7649C17.8228 52.7569 17.8142 52.6146 17.8832 52.5909C18.1765 52.504 18.5906 52.4881 18.7976 52.251C18.858 52.1798 18.9097 52.1007 18.9529 52.0138C19.0133 51.9031 19.0564 51.7766 19.0909 51.6422C19.1685 51.3022 19.1772 50.9306 19.1254 50.646C19.1082 50.5122 19.0909 50.3772 19.065 50.2428Z" fill="white"/>
<path d="M30.6765 51.9272C30.3832 52.362 30.1934 52.8917 29.5292 52.8917C29.4515 53.034 29.1064 52.9629 28.9598 52.9945C28.7786 53.034 28.6751 53.0419 28.4853 53.0815C27.9419 53.2001 27.5709 52.868 27.1741 52.9866C27.1396 53.0024 27.1482 53.0498 27.0964 53.0815C27.0016 53.1289 26.3373 53.1052 26.2338 53.0578C26.2252 53.0578 26.2165 53.0498 26.2079 53.0419C26.1303 52.9945 25.975 52.8601 25.975 52.8285C25.975 52.4806 26.3632 52.6229 26.5702 52.6308C26.7514 52.6387 26.9843 52.4569 26.9929 52.2909C26.967 52.3067 26.8463 52.3304 26.8376 52.2909C26.829 52.2751 26.8463 52.1406 26.8808 51.9746C26.8808 51.9509 26.8894 51.9272 26.8894 51.9035C26.9584 51.5319 27.0706 51.0338 27.0964 51.0259C27.0533 50.7492 26.9843 50.4725 26.9239 50.1958C26.8721 49.9111 26.8204 49.6186 26.8118 49.3261C26.7945 48.915 26.9498 48.5355 26.9929 48.1323V48.1007C27.0188 47.903 26.9153 47.5868 26.7082 47.4603C26.6565 47.4365 26.6047 47.4128 26.5357 47.4128C26.4667 47.4128 26.2338 47.4682 26.2424 47.3496L26.3891 47.2626C26.8376 47.2468 27.2862 47.2705 27.7176 47.3496C27.7003 47.3654 27.6744 47.3733 27.6572 47.3891C27.3984 47.5472 27.2776 47.4919 27.269 47.99V49.4921C27.269 49.5712 27.269 49.6977 27.3294 49.753C27.4243 49.8558 27.6227 49.7688 27.7521 49.7688C28.0885 49.7688 28.3214 49.8953 28.7269 49.8005C28.9339 49.7451 28.8218 49.7925 28.977 49.8479C29.1151 49.9032 29.348 49.7372 29.4774 49.6819C29.5205 49.666 29.5637 49.6423 29.6068 49.6265C30.1675 49.3577 30.0381 49.2233 30.1244 48.6383C30.133 48.5671 30.2107 48.5118 30.2107 48.4406C30.2107 48.0374 29.8742 47.7765 29.5033 47.65C29.4343 47.6263 29.0374 47.3733 29.0374 47.3417C29.141 47.2626 29.4515 47.2626 29.5637 47.3259C29.6154 47.3575 29.6327 47.4365 29.6586 47.4761C29.7621 47.6421 29.995 47.6895 30.1158 47.8397C30.3142 48.0769 30.2452 48.1006 30.3401 48.243C30.4004 48.3457 30.5126 48.322 30.5471 48.4643C30.6075 48.7173 30.4004 49.2945 30.271 49.5079C30.1934 49.6502 30.0381 49.7609 30.0122 49.919C29.9864 50.0297 30.5989 50.5594 30.711 50.8994C30.7455 51.0022 30.711 51.0654 30.7541 51.1445C30.918 51.4212 30.8318 51.7058 30.6765 51.9272ZM27.2776 50.3149C27.1827 50.5916 27.2603 51.0106 27.3035 51.2162C27.3294 51.3269 27.338 51.6352 27.4156 51.6431C27.4243 51.6748 27.4243 51.7064 27.4156 51.7459C27.4156 51.8487 27.407 51.9831 27.407 52.1096C27.4156 52.3072 27.4415 52.5049 27.5537 52.5919C27.7348 52.5998 28.6579 52.6393 28.7614 52.6946C28.8131 52.7184 28.8477 52.75 28.8908 52.75C28.9167 52.75 28.9425 52.7342 28.977 52.7025C29.3652 52.7025 30.0295 52.3151 30.1848 51.9831C30.2365 51.8645 30.2624 51.6668 30.271 51.4534C30.271 51.3822 30.2624 51.3032 30.2624 51.232C30.2538 51.2083 30.2538 51.1925 30.2538 51.1688C30.2452 51.1134 30.2365 51.0581 30.2279 51.0027C30.1848 50.7656 30.0985 50.56 29.9691 50.4572C29.8052 50.3386 29.555 50.2279 29.3739 50.141C29.1668 50.0461 28.9425 50.1014 28.7269 50.0777C28.4163 50.0382 27.8642 49.9829 27.5709 50.0382C27.4156 50.0693 27.3294 50.172 27.2776 50.3149ZM28.261 47.279C28.3128 47.2711 28.3732 47.2869 28.4249 47.2948C28.4681 47.3106 28.5112 47.3264 28.5457 47.3501C28.5285 47.3739 28.5112 47.3976 28.4853 47.4134C28.4336 47.4371 28.3818 47.4529 28.33 47.445C28.3214 47.445 28.3214 47.445 28.3214 47.445C28.2783 47.4371 28.2352 47.4213 28.2179 47.3897C28.2093 47.366 28.2007 47.3501 28.2093 47.3185C28.2265 47.3027 28.2438 47.2863 28.261 47.279Z" fill="white"/>
<path d="M35.3435 49.705C35.2659 49.8315 35.2055 49.9422 35.3176 50.0608C35.3004 50.1794 35.1968 50.5589 35.0674 50.5984C34.9553 50.6301 35.0243 50.7328 34.8777 50.6617C34.9035 50.7961 34.8 51.2784 34.6879 51.1598C34.4895 51.3495 34.5153 51.2388 34.4808 51.2309C34.3601 51.3179 34.5757 51.3416 34.6102 51.3495C34.6706 51.7132 34.2997 51.6025 34.2997 51.6104C34.2393 51.7369 34.2565 51.729 34.153 51.8239C34.2738 51.9504 33.946 52.5908 33.6872 52.6619C33.9805 52.994 33.5233 53.8083 33.3594 54.1562C33.3335 54.2194 33.2213 54.2589 33.1696 54.3064C33.0833 54.4091 33.0488 54.5436 32.9453 54.6384C32.6261 54.9389 32.4277 54.6621 32.2897 54.6621C32.2293 54.6621 32.143 54.7491 31.8325 54.7412C31.4874 54.7333 31.3407 54.5752 31.1682 54.3301C31.0474 54.172 30.7541 53.6581 30.7714 53.5158C30.7973 53.247 31.4011 52.8991 31.6772 52.907C31.8066 52.907 32.3242 53.2628 32.3759 53.3735C32.4191 53.5 32.4277 53.4604 32.5226 53.5158C32.6434 53.579 32.7124 53.5158 32.8245 53.5158C32.9712 53.5158 33.1178 53.5711 33.2559 53.5316C33.5147 53.2549 33.5405 53.1284 33.5405 52.7647C33.5405 52.401 33.2386 51.4128 33.3421 51.1756C33.3249 51.2784 33.5664 51.4128 33.6527 51.4918C33.9374 51.4602 34.3342 51.3969 34.4463 51.1123C34.4895 51.0095 34.4463 50.8989 34.4722 50.7961C34.5067 50.6775 34.6447 50.5352 34.731 50.4324C34.6102 50.2743 34.7138 49.9501 34.9553 49.9501C34.9726 49.6418 34.7741 49.2702 34.7741 49.2149C34.7741 48.8828 35.516 48.8986 35.7576 48.8986C35.8352 48.8354 36.1458 48.9303 36.1458 49.033C36.1544 49.2623 35.5074 49.4441 35.3435 49.705ZM31.7893 54.2036C32.1171 54.2036 32.1344 53.579 31.798 53.579C31.5564 53.579 31.4788 54.1957 31.7893 54.2036ZM32.6606 49.6655C32.4881 49.2781 32.212 49.2544 31.8756 49.0647C31.936 48.8749 32.5657 48.9619 32.7296 48.9856C32.8849 49.1437 33.0661 49.4679 32.7383 49.5627C33.0143 49.7841 32.721 49.6813 32.8159 49.8553C32.8935 49.9897 33.0574 49.8553 32.9194 50.1715C32.6779 50.0371 32.7296 49.8321 32.6606 49.6655ZM33.1696 50.7407C33.0833 50.7091 33.0488 50.6221 33.1092 50.5589C33.1868 50.5747 33.1782 50.6775 33.1782 50.7328L33.1696 50.7407Z" fill="white"/>
<path d="M46.5322 50.5906C46.3942 50.4562 46.3511 51.0017 46.3338 51.2231C46.3338 51.2784 46.3425 51.3259 46.3511 51.3812C46.3683 51.5235 46.4029 51.6737 46.3684 51.7844C46.3597 51.8081 46.2907 51.8872 46.1872 51.99C45.9198 52.2667 45.428 52.7331 45.3763 52.741C44.8846 52.8438 45.0053 52.5908 44.8673 52.6224C44.7207 52.6541 44.5654 52.8201 44.4791 52.8438C44.367 52.8675 43.1679 52.8675 42.9953 52.8596C42.7452 52.8438 42.5467 52.7331 42.2793 52.7885C42.0723 52.8359 41.7445 52.7806 41.7531 52.5276C41.7531 52.4801 41.7703 52.4406 41.7876 52.4011C41.8825 52.243 42.124 52.1876 42.2879 52.1165C42.5122 52.3853 42.5036 52.0848 42.564 52.0611C42.6589 52.0137 42.7883 52.0058 42.7883 51.8793C42.8055 51.0808 42.9436 49.7209 42.9177 49.0963C43.0557 49.2228 43.1937 49.8237 43.3231 50.0451L43.1851 50.7803L43.2283 51.1124L43.28 51.5077C43.2973 51.6579 43.4525 51.9346 43.5561 52.0453C43.6423 52.1481 44.0823 52.156 44.2289 52.156C44.4274 52.156 44.6258 52.1006 44.8156 52.0532C45.014 52.0137 45.0312 51.9109 45.0312 51.9109C45.2814 51.737 45.7386 51.5551 45.8076 51.2468C45.8508 51.0491 45.7817 50.9068 46.0147 50.812C46.0405 50.4483 45.9888 50.0846 45.9888 49.7209C45.9974 49.041 46.0405 48.4243 45.6782 47.863C45.6006 47.7444 45.4971 47.6258 45.3849 47.523C45.5833 47.6258 45.8249 47.7365 45.9888 47.8867C46.0837 47.9658 46.1958 48.7643 46.377 48.8513C46.4805 49.0094 46.6185 49.7605 46.4719 49.9028C46.584 49.9818 46.653 49.9028 46.6617 50.0609C46.5323 50.3455 46.4201 50.3218 46.5322 50.5906ZM43.2714 47.4604C43.1592 47.5315 43.0643 47.6264 43.0557 47.7766C43.0557 47.8873 43.0557 47.8003 43.0557 47.9189V48.1007C43.0471 48.2193 43.0471 48.1798 43.0471 48.3063V48.5198C43.0298 48.5356 43.0126 48.5593 42.9953 48.583C42.9953 48.5909 42.9867 48.5988 42.9781 48.5988C42.9349 48.5514 42.9091 48.4802 42.8918 48.4012C42.8832 48.3063 42.8918 48.2193 42.8918 48.1245C42.8918 48.0849 42.9004 48.0375 42.9004 47.9901C42.9004 47.911 42.9091 47.824 42.9004 47.7529C42.8918 47.6817 42.8746 47.6106 42.8487 47.5631C42.8228 47.5394 42.8055 47.5157 42.771 47.4999C42.702 47.4683 42.633 47.4445 42.564 47.4208C42.426 47.3734 42.2793 47.3418 42.1672 47.3655C42.124 47.3734 41.9601 47.405 41.9601 47.318C41.9601 47.3022 41.9688 47.2864 41.9774 47.2785C42.0292 47.2232 42.2017 47.2627 42.2534 47.2706C42.2879 47.2706 42.564 47.1995 42.5985 47.1836C42.6589 47.1678 42.7797 47.1441 42.9177 47.1283C42.9522 47.1283 42.9953 47.1283 43.0385 47.1204C43.1765 47.1125 43.3231 47.1204 43.4353 47.1441C43.4698 47.152 43.5216 47.1678 43.5474 47.1916C43.5733 47.2074 43.5906 47.2311 43.5906 47.2627C43.5906 47.2627 43.5906 47.2627 43.5906 47.2706C43.5906 47.3175 43.418 47.3655 43.2714 47.4604Z" fill="white"/>
<path d="M51.553 52.7013C51.1475 53.2626 50.9663 52.6933 50.6126 52.638C50.5264 52.6222 50.3193 52.638 50.2331 52.6617C50.3538 52.7961 49.8621 52.7566 49.8363 52.7566C49.75 52.7724 49.6896 52.8831 49.6033 52.9068C49.2496 53.0096 48.663 52.9938 48.3007 52.9463C48.0247 52.9147 47.9298 52.7882 47.74 52.638C47.6365 52.551 47.4984 52.5827 47.4208 52.4562C47.3259 52.2901 47.3 52.1004 47.3 51.9185C47.3086 51.7841 47.4553 51.4916 47.5329 51.3809C47.7486 51.1042 47.9988 50.9461 48.3697 50.9145C48.6458 50.8829 48.9477 50.7406 49.2324 50.6931C49.4394 50.6536 49.8966 50.6457 50.0605 50.5587C50.1727 50.4955 50.259 50.3532 50.3797 50.2741C50.535 50.1713 50.5868 50.2504 50.6989 50.0132C50.7075 50.116 50.7766 50.3848 50.906 50.4164C50.742 50.5587 51.1216 51.2465 50.8369 51.4205C50.8456 51.4521 50.9405 51.4521 50.9663 51.4521C50.9318 51.5707 51.044 51.7051 51.0354 51.8158C51.2079 52.0688 51.4926 52.132 51.622 52.4166C51.6565 52.5036 51.6565 52.6459 51.553 52.7013ZM50.7162 49.7997C50.673 49.7286 50.3452 49.3096 50.2935 49.27C50.1727 49.1831 50.026 49.2147 49.8794 49.1831C49.7586 49.1593 49.6465 49.1119 49.5171 49.1277C49.2841 49.1514 48.663 49.4598 48.4732 49.5942C48.3697 49.8234 48.0074 49.8709 47.8953 49.7444C47.8435 49.6811 47.8435 49.5784 47.8607 49.5072C47.9988 49.0249 48.3956 49.0803 48.8097 48.938C49.103 48.8352 49.379 48.7482 49.6982 48.8352C50.0778 48.938 50.4315 49.0487 50.6385 49.3728C50.6903 49.4677 50.8283 49.7049 50.7162 49.7918V49.7997ZM50.4574 51.2544C50.3884 51.0726 50.3193 50.9303 50.095 50.875C50.026 50.8512 49.9225 50.8987 49.8363 50.8908C49.6378 50.875 49.4567 50.8354 49.2496 50.875C49.0253 50.9145 48.801 50.9856 48.5681 51.0173C48.4905 51.1042 48.2835 51.2782 48.1541 51.3019C48.0505 51.4205 47.8866 51.6418 47.8866 51.8C47.878 51.9186 47.9729 52.0213 48.0419 52.1241C48.2662 52.4403 48.6458 52.5352 49.034 52.5668C49.1202 52.5748 49.1892 52.6301 49.2841 52.6222C49.3877 52.6064 49.4567 52.5036 49.5429 52.4562C49.7414 52.3297 50.1037 52.3139 50.2762 52.1636C50.4574 51.9897 50.5609 51.7209 50.5523 51.4837C50.5523 51.3968 50.4919 51.3262 50.4574 51.2544Z" fill="white"/>
<path d="M56.22 49.705C56.1423 49.8315 56.0819 49.9422 56.1941 50.0608C56.1768 50.1794 56.0733 50.5589 55.9439 50.5984C55.8318 50.6301 55.9008 50.7328 55.7541 50.6617C55.78 50.7961 55.6765 51.2784 55.5643 51.1598C55.3659 51.3495 55.3918 51.2388 55.3573 51.2309C55.2365 51.3179 55.4522 51.3416 55.4867 51.3495C55.5471 51.7132 55.1761 51.6025 55.1761 51.6104C55.1158 51.7369 55.133 51.729 55.0295 51.8239C55.1503 51.9504 54.8225 52.5908 54.5637 52.6619C54.857 52.994 54.3997 53.8083 54.2358 54.1562C54.21 54.2194 54.0978 54.2589 54.0461 54.3064C53.9598 54.4091 53.9253 54.5436 53.8218 54.6384C53.5026 54.9389 53.3042 54.6621 53.1661 54.6621C53.1058 54.6621 53.0195 54.7491 52.7089 54.7412C52.3639 54.7333 52.2172 54.5752 52.0447 54.3301C51.9239 54.172 51.6306 53.6581 51.6478 53.5158C51.6737 53.247 52.2776 52.8991 52.5536 52.907C52.683 52.907 53.2006 53.2628 53.2524 53.3735C53.2955 53.5 53.3042 53.4604 53.3991 53.5158C53.5198 53.579 53.5888 53.5158 53.701 53.5158C53.8476 53.5158 53.9943 53.5711 54.1323 53.5316C54.3911 53.2549 54.417 53.1284 54.417 52.7647C54.417 52.401 54.1151 51.4128 54.2186 51.1756C54.2013 51.2784 54.4429 51.4128 54.5291 51.4918C54.8138 51.4602 55.2106 51.3969 55.3228 51.1123C55.3659 51.0095 55.3228 50.8989 55.3487 50.7961C55.3832 50.6775 55.5212 50.5352 55.6075 50.4324C55.4867 50.2743 55.5902 49.9501 55.8318 49.9501C55.849 49.6418 55.6506 49.2702 55.6506 49.2149C55.6506 48.8828 56.3925 48.8986 56.634 48.8986C56.7117 48.8354 57.0222 48.9303 57.0222 49.033C57.0309 49.2623 56.3839 49.4441 56.22 49.705ZM52.6658 54.2036C52.9936 54.2036 53.0109 53.579 52.6744 53.579C52.4329 53.579 52.3552 54.1957 52.6658 54.2036ZM53.5371 49.6655C53.3645 49.2781 53.0885 49.2544 52.7521 49.0647C52.8124 48.8749 53.4422 48.9619 53.6061 48.9856C53.7614 49.1437 53.9425 49.4679 53.6147 49.5627C53.8908 49.7841 53.5975 49.6813 53.6924 49.8553C53.77 49.9897 53.9339 49.8553 53.7959 50.1715C53.5543 50.0371 53.6061 49.8321 53.5371 49.6655ZM54.0461 50.7407C53.9598 50.7091 53.9253 50.6221 53.9857 50.5589C54.0633 50.5747 54.0547 50.6775 54.0547 50.7328L54.0461 50.7407Z" fill="white"/>
<path d="M61.2407 53.3098L58.6354 53.3414C58.4284 53.3414 58.2041 53.3019 58.0574 53.1675C58.1523 52.8117 59.3773 52.9224 59.5326 52.9224C59.9984 52.9224 60.0502 51.5705 60.1106 50.5822C60.1278 50.5901 60.0933 50.5585 60.0847 50.5427L60.0329 50.432C59.9898 50.3451 59.8777 50.0367 59.9898 49.9656C60.0329 49.4438 59.9467 48.9061 60.0071 48.3923C60.0243 48.1946 59.5067 47.7835 59.3342 47.6728C59.6447 47.5937 60.0243 47.5384 60.1451 47.9179C60.171 48.0128 60.1968 49.0959 60.2055 49.2461C60.2055 49.3568 60.1537 49.4675 60.1623 49.5782C60.171 49.7363 60.309 49.8549 60.3176 50.013C60.3176 50.1553 60.2313 50.2739 60.2313 50.4162C60.2313 50.6692 60.2831 50.9301 60.2917 51.1831C60.3004 51.4835 60.3176 52.622 60.3866 52.8276C60.4125 52.8908 60.516 52.8987 60.5764 52.9224C60.8007 52.9224 61.6375 52.788 61.6461 53.1991C61.5426 53.2229 61.3269 53.3098 61.2407 53.3098ZM58.8597 47.7914C58.6786 47.7993 58.3594 47.989 58.3594 47.6728C58.5837 47.5779 58.8425 47.6017 59.0495 47.7202C58.9805 47.7361 58.9201 47.7682 58.8597 47.7914Z" fill="white"/>
<path d="M66.8307 53.0174C66.7531 53.0332 66.6841 53.049 66.6151 53.0885C66.5719 53.1043 66.5374 53.128 66.5029 53.1597C66.3563 53.1122 66.3821 52.9936 66.1147 52.9857C66.0198 52.9857 65.8904 53.049 65.8041 53.0411C65.6747 53.0253 65.5712 52.9778 65.4246 52.9778C65.0278 52.9699 65.0019 53.1597 64.8293 53.1518C64.5964 53.1518 64.1996 53.0964 63.9063 53.128C63.7941 53.136 63.6993 53.1518 63.6216 53.1913C63.6216 53.1834 63.613 53.1834 63.5957 53.1755C63.4836 53.1359 63.3628 53.1201 63.2507 53.0648C63.1471 53.0253 63.0695 52.962 63.0695 52.8671C63.1299 52.8039 63.4577 52.4718 63.5095 52.456C63.5699 52.4323 63.6734 52.4402 63.7424 52.4402C64.0875 52.4481 63.9235 52.5114 64.1392 52.5904C64.4584 52.7011 64.9329 52.6221 65.0364 52.2979C65.1399 51.9896 65.183 51.1357 64.907 50.9302C64.8725 50.7878 65.2866 50.693 64.907 50.353C64.976 50.2265 65.0968 50.1396 65.1054 49.9893C65.1054 49.7917 64.9674 49.6652 64.8035 49.5545C64.6999 49.4913 64.5878 49.4754 64.467 49.4992C64.1478 49.5466 63.7596 49.7838 63.3973 49.6494C63.3197 49.6257 63.2938 49.5782 63.2938 49.5229C63.3024 49.3964 63.475 49.2304 63.5612 49.1829C63.613 49.1592 63.9322 49.1513 64.2514 49.1592C64.398 49.1671 64.8725 49.175 65.0105 49.1987C65.3728 49.4754 65.183 49.4359 65.2779 49.7522C65.3038 49.8549 65.4332 50.0131 65.5022 50.1C65.4591 51.1199 65.4332 51.1041 65.3728 51.2701L65.3987 52.3928C65.4073 52.5904 65.5453 52.6379 65.7265 52.6458C65.8904 52.6537 65.9681 52.5825 66.0284 52.5351C66.201 52.4007 66.8307 52.4718 67.0033 52.5588C67.1154 52.6141 67.2017 52.709 67.2448 52.8434C67.1758 52.9936 67.0033 52.9857 66.8307 53.0174ZM65.252 48.4008C65.1658 48.4166 65.0795 48.4166 64.9932 48.4166C64.8897 48.3059 64.7603 48.211 64.6482 48.1004C64.26 47.7209 65.0881 47.2386 65.4763 47.7841C65.7006 48.0924 65.5195 48.2105 65.252 48.4008Z" fill="white"/>
<path d="M71.8342 50.2666C71.722 50.2587 71.6099 50.2192 71.5064 50.2192C71.377 50.2192 71.3338 50.2745 71.3252 50.3852C71.3252 50.5196 71.4115 50.6619 71.4028 50.7963C71.3942 50.9782 71.2734 51.1363 71.1872 51.3023C71.144 51.3735 71.0233 51.3577 70.9888 51.4446C70.9801 51.4763 71.0405 51.6186 71.006 51.6581C70.799 51.9032 70.014 51.9981 69.7034 51.9981C69.5136 51.8083 69.4705 51.9427 69.3756 51.9269C69.0564 51.8795 68.5474 51.9427 68.5302 52.3222C68.5215 52.4882 68.5819 52.5673 68.7286 52.6622C68.8149 52.7096 69.2376 52.8994 69.3238 52.8914C69.3842 52.8914 69.4532 52.8519 69.5136 52.8361L70.2555 52.7729C70.4367 52.7966 70.7213 52.7729 70.8766 52.8045C71.0405 52.844 71.2044 52.8519 71.3683 52.8914C71.6616 52.9468 72.1275 53.2947 72.1534 53.5793C72.1534 53.6346 72.0585 53.769 72.0757 53.8086C72.1016 53.8639 72.2396 53.8165 72.2483 53.8797C72.2569 54.0378 72.0585 54.4094 71.9549 54.5359C71.8169 54.7098 71.3942 54.7652 71.1786 54.8284C70.5488 55.034 70.3073 55.0024 69.6775 54.9945C69.3152 54.9945 69.3842 54.9707 69.0564 54.8521C69.0046 54.8363 68.9184 54.868 68.8407 54.8521C68.4267 54.7652 68.0643 54.615 67.9694 54.188C67.9522 54.109 67.9608 53.5397 67.9781 53.5002C68.0298 53.3579 68.4525 52.9705 68.3576 52.8124C68.2455 52.6385 68.142 52.5436 68.1506 52.3222C68.1592 51.7134 68.5647 51.8399 68.5647 51.5553C68.5647 51.5158 68.2973 50.9307 68.2627 50.8122C68.211 50.654 68.2024 50.4643 68.2714 50.3062C68.349 50.148 68.3922 49.9662 68.5129 49.8318C68.6596 49.6579 69.2376 49.2705 69.4705 49.1914C69.9708 49.0333 69.9363 49.1835 70.3418 49.3495C70.4884 49.4128 70.7904 49.4523 70.9629 49.4444C71.2131 49.4444 71.3511 49.1993 71.5754 49.1993C71.7307 49.2072 72.1534 49.3574 72.2569 49.4681C72.5847 49.8324 72.369 50.2825 71.8342 50.2666ZM71.2562 53.3658C71.1958 53.3421 70.5488 53.1682 70.5229 53.1682C70.3418 53.1603 69.4101 53.0733 69.1599 53.1761C68.9097 53.2868 68.1851 53.7769 68.4353 54.0774C68.487 54.1406 68.6596 54.2355 68.7372 54.275C69.1254 54.4964 70.2986 54.4964 70.7731 54.4568C70.9715 54.441 71.1527 54.3145 71.3166 54.2197C71.3683 54.196 71.6271 54.0536 71.6444 54.0378C71.7479 53.9034 71.4374 53.4212 71.2562 53.3658ZM70.8249 50.1955C70.7817 50.1322 70.8162 50.0848 70.7472 50.0295C70.6868 49.9741 70.5402 49.9978 70.4194 49.903C70.3504 49.8476 70.2124 49.6737 70.1261 49.6737C70.0398 49.6816 69.9449 49.7448 69.9191 49.7448C69.6775 49.7448 69.8673 49.6421 69.5567 49.7448C69.2289 49.8634 68.6164 50.2192 68.5992 50.575C68.5906 50.6778 68.8235 51.1363 68.8839 51.2391C69.0478 51.4763 69.505 51.6976 69.8155 51.6265C69.9277 51.6028 70.2124 51.4763 70.3159 51.4209C70.7731 51.1916 70.9284 51.1837 70.937 50.7015C70.937 50.5196 70.9111 50.3536 70.8249 50.1955Z" fill="white"/>
<path d="M77.3121 53.4293C77.2517 53.4451 76.829 53.4767 76.76 53.4767C76.5788 53.4767 76.0871 53.3344 75.9491 53.2237C75.8887 53.1763 75.8714 53.0656 75.8628 53.0182C75.8197 52.694 76.4494 52.6387 76.458 52.2829L76.4667 51.5397C76.4753 51.437 76.6651 51.0417 76.6651 51.0258C76.6651 50.8598 76.5443 50.6938 76.5184 50.5357C76.4839 50.3617 76.5529 49.8162 76.4494 49.7213C76.389 49.6581 76.1906 49.8004 76.1044 49.7925C75.8887 49.7846 75.6644 49.6739 75.4574 49.666C75.328 49.666 75.026 49.666 74.9311 49.753C74.7672 49.9032 74.4567 49.8004 74.31 49.9664C74.172 50.1325 74.2237 50.5594 74.1375 50.7808C74.0771 50.9389 74.0512 51.2472 74.0598 51.429C74.0685 51.7453 74.1461 52.2038 74.1547 52.4726C74.1634 52.8363 74.5947 52.6861 74.5774 53.1051C74.5774 53.2395 74.31 53.1447 74.2065 53.1605C74.0771 53.1684 73.9218 53.2474 73.801 53.2474C73.5767 53.2553 72.9729 53.3107 72.9729 52.9786C72.9815 52.8126 73.1023 52.7177 73.2489 52.6308C73.318 52.5833 73.4128 52.6229 73.4819 52.5675C73.6113 52.4727 73.5509 52.1564 73.594 52.0062C73.663 51.8164 73.8183 51.6109 73.8183 51.3974L73.8269 49.832C73.8269 49.7292 73.7665 49.2707 73.9822 49.4051C74.1202 49.4921 74.681 49.753 74.8362 49.6897C74.957 49.6423 75.026 49.5395 75.1468 49.4921C75.397 49.3814 75.6903 49.2707 75.975 49.2786C76.2855 49.2944 76.9929 49.6976 76.9929 50.0139C76.9929 50.1087 76.9411 50.8045 77.0188 50.9468C77.0533 51.0337 77.1827 51.097 77.1827 51.1919L77.1654 52.1011C77.1568 52.5201 77.7089 52.6545 77.7089 52.9865C77.7003 53.1763 77.4932 53.3739 77.3121 53.4293ZM74.31 48.0769C74.2151 48.1718 74.1892 48.3141 74.1461 48.4406C74.0771 48.6145 74.1547 48.8438 73.9563 48.9545C73.8355 48.8991 73.8355 48.4247 73.7838 48.2903C73.6716 47.982 73.1972 47.9662 73.2058 47.729C73.2058 47.5314 73.5077 47.4918 73.6716 47.4997C73.7493 47.5076 73.8183 47.6341 73.8528 47.6341C73.8787 47.6341 73.9304 47.5076 74.0167 47.5076C74.2237 47.5076 74.5516 47.65 74.5516 47.8792C74.5516 48.0374 74.3704 48.0215 74.31 48.0769Z" fill="white"/>
<path d="M82.9194 52.4323C82.8676 52.4956 82.8159 52.5588 82.7641 52.6221C82.6606 52.7486 82.5571 52.883 82.4363 53.0016C82.3414 53.0885 82.2465 53.1676 82.1344 53.215C81.9187 53.302 81.6685 53.3178 81.4011 53.302C81.289 53.3336 81.1682 53.3494 81.0647 53.3494C80.9525 53.3494 80.8317 53.3099 80.711 53.2308C80.6506 53.2308 80.5902 53.2229 80.5298 53.2229L80.5212 53.215C80.271 53.2071 79.8656 52.6853 79.8138 52.4798C79.8052 52.4323 79.8397 52.2742 79.8483 52.2268C79.9001 52.0212 79.7793 51.6891 79.8397 51.5389C79.8397 51.531 79.8397 51.5231 79.8397 51.5231C79.8569 51.4757 79.8742 51.4441 79.8914 51.4045C79.9346 51.3255 79.9691 51.2543 79.9604 51.112C79.9432 50.9144 79.9691 50.7404 79.995 50.5586C79.9863 50.5349 79.9777 50.5111 79.9691 50.4874V50.4795C79.9605 50.4558 79.9432 50.4242 79.9346 50.4005C79.9173 50.3372 79.8914 50.2819 79.8656 50.2265C79.7534 50.0052 79.6068 49.8154 79.417 49.7284C79.2272 49.7601 79.0202 49.7917 78.8649 49.8154C78.8476 49.8154 78.8304 49.8154 78.8131 49.8075C78.8045 49.7996 78.8045 49.7996 78.7959 49.7996C78.7355 49.7601 78.6665 49.7047 78.6406 49.6731C78.6406 49.4755 78.8994 49.4755 79.1496 49.515C79.1841 49.4992 79.2272 49.4834 79.2617 49.4675C79.7707 49.2304 79.9001 48.9695 79.9346 48.7165C79.8742 48.3686 79.8397 47.9891 80.1071 47.744C80.1071 47.744 80.1589 47.7677 80.1934 47.7994C80.2365 47.831 80.271 47.8784 80.3055 47.9259C80.3314 47.9733 80.3573 48.0128 80.3573 48.0445C80.3055 48.1868 80.202 48.5504 80.1847 48.8825C80.1934 49.0564 80.2279 49.0801 80.2796 49.096C80.409 49.3015 80.5557 49.2857 80.6506 49.4517C80.711 49.3648 80.8404 49.4913 80.918 49.4675C81.0733 49.4359 81.9705 49.3094 81.9618 49.5308C81.8928 49.594 81.8152 49.6415 81.7289 49.6731C81.703 49.681 81.6858 49.6889 81.6599 49.6968C81.6427 49.7047 81.634 49.7047 81.6168 49.7126C81.5305 49.7284 81.4442 49.7364 81.358 49.7364C81.3062 49.7364 81.2458 49.7364 81.1941 49.7364C81.1596 49.7284 81.1251 49.7284 81.0992 49.7205C81.0129 49.7126 80.9353 49.6968 80.8576 49.681C80.849 49.7047 80.7541 49.8075 80.7455 49.8075C80.642 49.8075 80.5643 49.8312 80.5039 49.8787C80.1244 50.1554 80.34 51.1199 80.271 51.4282L80.2279 51.6496C80.2193 51.6733 80.2279 51.6259 80.2193 51.9342L80.2106 52.1319C80.3659 52.29 80.3659 52.2821 80.3659 52.29C80.3745 52.3453 80.4004 52.4244 80.4349 52.5035C80.4522 52.543 80.4781 52.5904 80.5126 52.6379C80.5471 52.6932 80.5902 52.7407 80.642 52.7881C80.7541 52.8909 80.9094 52.9699 81.0992 52.9699C81.4097 52.9699 81.634 52.7802 81.8152 52.5509C81.8324 52.4956 81.8669 52.4481 81.8756 52.3849C81.8928 52.3453 81.9101 52.2979 81.9273 52.2584C81.9532 52.1872 81.9963 52.124 82.0308 52.0607C82.0826 51.9817 82.143 51.9105 82.1947 51.8235C82.2379 51.7603 82.2724 51.6891 82.2983 51.6101C82.4967 51.5073 82.652 51.4124 82.7986 51.6338C82.8245 51.9738 83.1092 52.0291 82.9539 52.4007C82.9453 52.4086 82.928 52.4244 82.9194 52.4323Z" fill="white"/>
<path d="M96.1445 26.5625V55H93.7617V26.5625H96.1445ZM105.891 26.5625V28.6328H84.0352V26.5625H105.891Z" fill="white"/>
<path d="M110.812 37.3633V55H108.488V33.8672H110.754L110.812 37.3633ZM118.293 33.7109L118.234 35.8594C117.974 35.8203 117.72 35.7878 117.473 35.7617C117.225 35.7357 116.958 35.7227 116.672 35.7227C115.656 35.7227 114.764 35.9115 113.996 36.2891C113.241 36.6536 112.603 37.168 112.082 37.832C111.561 38.4831 111.164 39.2513 110.891 40.1367C110.617 41.0091 110.461 41.9466 110.422 42.9492L109.562 43.2812C109.562 41.901 109.706 40.6185 109.992 39.4336C110.279 38.2487 110.715 37.2135 111.301 36.3281C111.9 35.4297 112.648 34.7331 113.547 34.2383C114.458 33.7305 115.526 33.4766 116.75 33.4766C117.049 33.4766 117.342 33.5026 117.629 33.5547C117.928 33.5938 118.15 33.6458 118.293 33.7109Z" fill="white"/>
<path d="M134.035 51.2109V40.3125C134.035 39.3099 133.827 38.444 133.41 37.7148C132.993 36.9857 132.382 36.4258 131.574 36.0352C130.767 35.6445 129.771 35.4492 128.586 35.4492C127.492 35.4492 126.516 35.6445 125.656 36.0352C124.81 36.4128 124.139 36.9271 123.645 37.5781C123.163 38.2161 122.922 38.9258 122.922 39.707L120.578 39.6875C120.578 38.8932 120.773 38.125 121.164 37.3828C121.555 36.6406 122.108 35.9766 122.824 35.3906C123.54 34.8047 124.393 34.3424 125.383 34.0039C126.385 33.6523 127.486 33.4766 128.684 33.4766C130.194 33.4766 131.522 33.7305 132.668 34.2383C133.827 34.7461 134.732 35.5078 135.383 36.5234C136.034 37.5391 136.359 38.8151 136.359 40.3516V50.5664C136.359 51.2956 136.411 52.0508 136.516 52.832C136.633 53.6133 136.796 54.2578 137.004 54.7656V55H134.523C134.367 54.5312 134.243 53.9453 134.152 53.2422C134.074 52.526 134.035 51.849 134.035 51.2109ZM134.582 42.6953L134.621 44.4922H130.031C128.833 44.4922 127.759 44.6029 126.809 44.8242C125.871 45.0326 125.077 45.3451 124.426 45.7617C123.775 46.1654 123.273 46.6536 122.922 47.2266C122.583 47.7995 122.414 48.4505 122.414 49.1797C122.414 49.9349 122.603 50.625 122.98 51.25C123.371 51.875 123.918 52.3763 124.621 52.7539C125.337 53.1185 126.184 53.3008 127.16 53.3008C128.462 53.3008 129.608 53.0599 130.598 52.5781C131.6 52.0964 132.427 51.4648 133.078 50.6836C133.729 49.9023 134.165 49.0495 134.387 48.125L135.402 49.4727C135.233 50.1237 134.921 50.7943 134.465 51.4844C134.022 52.1615 133.443 52.7995 132.727 53.3984C132.01 53.9844 131.164 54.4661 130.188 54.8438C129.224 55.2083 128.13 55.3906 126.906 55.3906C125.526 55.3906 124.322 55.1302 123.293 54.6094C122.277 54.0885 121.483 53.3789 120.91 52.4805C120.35 51.569 120.07 50.5404 120.07 49.3945C120.07 48.3529 120.292 47.4219 120.734 46.6016C121.177 45.7682 121.815 45.0651 122.648 44.4922C123.495 43.9062 124.51 43.4635 125.695 43.1641C126.893 42.8516 128.234 42.6953 129.719 42.6953H134.582Z" fill="white"/>
<path d="M150.422 53.3789C151.411 53.3789 152.336 53.1966 153.195 52.832C154.068 52.4544 154.784 51.901 155.344 51.1719C155.917 50.4297 156.242 49.5247 156.32 48.457H158.547C158.482 49.7982 158.072 50.9961 157.316 52.0508C156.574 53.0924 155.598 53.9128 154.387 54.5117C153.189 55.0977 151.867 55.3906 150.422 55.3906C148.951 55.3906 147.648 55.1237 146.516 54.5898C145.396 54.056 144.458 53.3138 143.703 52.3633C142.948 51.3997 142.375 50.2799 141.984 49.0039C141.607 47.7148 141.418 46.3281 141.418 44.8438V44.0234C141.418 42.5391 141.607 41.1589 141.984 39.8828C142.375 38.5938 142.948 37.474 143.703 36.5234C144.458 35.5599 145.396 34.8112 146.516 34.2773C147.635 33.7435 148.931 33.4766 150.402 33.4766C151.913 33.4766 153.267 33.7826 154.465 34.3945C155.676 35.0065 156.639 35.8724 157.355 36.9922C158.085 38.112 158.482 39.4401 158.547 40.9766H156.32C156.255 39.8438 155.956 38.8672 155.422 38.0469C154.888 37.2266 154.185 36.5951 153.312 36.1523C152.44 35.7096 151.47 35.4883 150.402 35.4883C149.204 35.4883 148.182 35.7227 147.336 36.1914C146.49 36.6471 145.799 37.2786 145.266 38.0859C144.745 38.8802 144.361 39.7917 144.113 40.8203C143.866 41.8359 143.742 42.9036 143.742 44.0234V44.8438C143.742 45.9766 143.859 47.0573 144.094 48.0859C144.341 49.1016 144.725 50.0065 145.246 50.8008C145.78 51.5951 146.47 52.2266 147.316 52.6953C148.176 53.151 149.211 53.3789 150.422 53.3789Z" fill="white"/>
<path d="M165.578 25V55H163.254V25H165.578ZM178.84 33.8672L168.957 43.6719L164.758 47.7344L164.406 45.4492L167.785 41.7969L175.891 33.8672H178.84ZM176.809 55L167.98 44.0234L169.27 42.0117L179.621 55H176.809Z" fill="white"/>
<path d="M190.637 55.3906C189.257 55.3906 187.987 55.1367 186.828 54.6289C185.682 54.1211 184.68 53.4049 183.82 52.4805C182.974 51.556 182.316 50.4622 181.848 49.1992C181.392 47.9232 181.164 46.5299 181.164 45.0195V44.1797C181.164 42.5521 181.405 41.0807 181.887 39.7656C182.368 38.4505 183.033 37.3242 183.879 36.3867C184.725 35.4492 185.689 34.7331 186.77 34.2383C187.863 33.7305 189.009 33.4766 190.207 33.4766C191.548 33.4766 192.74 33.7174 193.781 34.1992C194.823 34.668 195.695 35.3385 196.398 36.2109C197.115 37.0703 197.655 38.0924 198.02 39.2773C198.384 40.4492 198.566 41.7448 198.566 43.1641V44.5898H182.57V42.5977H196.242V42.3242C196.216 41.1393 195.975 40.0326 195.52 39.0039C195.077 37.9622 194.413 37.1159 193.527 36.4648C192.642 35.8138 191.535 35.4883 190.207 35.4883C189.217 35.4883 188.306 35.6966 187.473 36.1133C186.652 36.5299 185.943 37.1289 185.344 37.9102C184.758 38.6784 184.302 39.5964 183.977 40.6641C183.664 41.7188 183.508 42.8906 183.508 44.1797V45.0195C183.508 46.1914 183.677 47.2852 184.016 48.3008C184.367 49.3034 184.862 50.1888 185.5 50.957C186.151 51.7253 186.919 52.3242 187.805 52.7539C188.69 53.1836 189.667 53.3984 190.734 53.3984C191.984 53.3984 193.091 53.1706 194.055 52.7148C195.018 52.2461 195.884 51.5104 196.652 50.5078L198.117 51.6406C197.661 52.3177 197.089 52.9427 196.398 53.5156C195.721 54.0885 194.908 54.5443 193.957 54.8828C193.007 55.2214 191.9 55.3906 190.637 55.3906Z" fill="white"/>
<path d="M205.5 37.3633V55H203.176V33.8672H205.441L205.5 37.3633ZM212.98 33.7109L212.922 35.8594C212.661 35.8203 212.408 35.7878 212.16 35.7617C211.913 35.7357 211.646 35.7227 211.359 35.7227C210.344 35.7227 209.452 35.9115 208.684 36.2891C207.928 36.6536 207.29 37.168 206.77 37.832C206.249 38.4831 205.852 39.2513 205.578 40.1367C205.305 41.0091 205.148 41.9466 205.109 42.9492L204.25 43.2812C204.25 41.901 204.393 40.6185 204.68 39.4336C204.966 38.2487 205.402 37.2135 205.988 36.3281C206.587 35.4297 207.336 34.7331 208.234 34.2383C209.146 33.7305 210.214 33.4766 211.438 33.4766C211.737 33.4766 212.03 33.5026 212.316 33.5547C212.616 33.5938 212.837 33.6458 212.98 33.7109Z" fill="white"/>
<path d="M218.359 49.5312H215.156L215.141 48.7188H217.898C218.461 48.7188 218.94 48.638 219.336 48.4766C219.732 48.3151 220.031 48.0755 220.234 47.7578C220.443 47.4349 220.547 47.0391 220.547 46.5703C220.547 46.0911 220.445 45.6953 220.242 45.3828C220.039 45.0651 219.734 44.8307 219.328 44.6797C218.922 44.5286 218.411 44.4531 217.797 44.4531H215.406V55H214.445V43.625H217.797C218.375 43.625 218.893 43.6823 219.352 43.7969C219.81 43.9115 220.201 44.0911 220.523 44.3359C220.846 44.5807 221.091 44.8906 221.258 45.2656C221.43 45.6354 221.516 46.0781 221.516 46.5938C221.516 47.0625 221.411 47.487 221.203 47.8672C220.995 48.2422 220.701 48.5495 220.32 48.7891C219.945 49.0234 219.495 49.1693 218.969 49.2266L218.359 49.5312ZM218.289 55H214.852L215.344 54.1797H218.289C218.852 54.1797 219.331 54.0859 219.727 53.8984C220.128 53.7057 220.435 53.4323 220.648 53.0781C220.862 52.724 220.969 52.3021 220.969 51.8125C220.969 51.3802 220.875 50.9922 220.688 50.6484C220.5 50.3047 220.214 50.0339 219.828 49.8359C219.443 49.6328 218.953 49.5312 218.359 49.5312H216.367L216.383 48.7188H219.203L219.375 49.0078C219.885 49.0599 220.331 49.2188 220.711 49.4844C221.096 49.7448 221.393 50.0755 221.602 50.4766C221.815 50.8776 221.922 51.3177 221.922 51.7969C221.922 52.4844 221.768 53.0677 221.461 53.5469C221.159 54.0208 220.734 54.3828 220.188 54.6328C219.646 54.8776 219.013 55 218.289 55Z" fill="white"/>
<path d="M227.305 55.1562C226.753 55.1562 226.245 55.0547 225.781 54.8516C225.323 54.6484 224.922 54.362 224.578 53.9922C224.24 53.6224 223.977 53.1849 223.789 52.6797C223.607 52.1693 223.516 51.612 223.516 51.0078V50.6719C223.516 50.0208 223.612 49.4323 223.805 48.9062C223.997 48.3802 224.263 47.9297 224.602 47.5547C224.94 47.1797 225.326 46.8932 225.758 46.6953C226.195 46.4922 226.654 46.3906 227.133 46.3906C227.669 46.3906 228.146 46.487 228.562 46.6797C228.979 46.8672 229.328 47.1354 229.609 47.4844C229.896 47.8281 230.112 48.237 230.258 48.7109C230.404 49.1797 230.477 49.6979 230.477 50.2656V50.8359H224.078V50.0391H229.547V49.9297C229.536 49.4557 229.44 49.013 229.258 48.6016C229.081 48.1849 228.815 47.8464 228.461 47.5859C228.107 47.3255 227.664 47.1953 227.133 47.1953C226.737 47.1953 226.372 47.2786 226.039 47.4453C225.711 47.612 225.427 47.8516 225.188 48.1641C224.953 48.4714 224.771 48.8385 224.641 49.2656C224.516 49.6875 224.453 50.1562 224.453 50.6719V51.0078C224.453 51.4766 224.521 51.9141 224.656 52.3203C224.797 52.7214 224.995 53.0755 225.25 53.3828C225.51 53.6901 225.818 53.9297 226.172 54.1016C226.526 54.2734 226.917 54.3594 227.344 54.3594C227.844 54.3594 228.286 54.2682 228.672 54.0859C229.057 53.8984 229.404 53.6042 229.711 53.2031L230.297 53.6562C230.115 53.9271 229.885 54.1771 229.609 54.4062C229.339 54.6354 229.013 54.8177 228.633 54.9531C228.253 55.0885 227.81 55.1562 227.305 55.1562Z" fill="white"/>
<path d="M235.516 46.5469V47.3125H231.281V46.5469H235.516ZM232.836 44.375H233.766V52.9453C233.766 53.3359 233.818 53.6302 233.922 53.8281C234.026 54.026 234.161 54.1589 234.328 54.2266C234.495 54.2943 234.674 54.3281 234.867 54.3281C235.008 54.3281 235.143 54.3203 235.273 54.3047C235.404 54.2839 235.521 54.263 235.625 54.2422L235.664 55.0312C235.549 55.0677 235.401 55.0964 235.219 55.1172C235.036 55.1432 234.854 55.1562 234.672 55.1562C234.312 55.1562 233.995 55.0911 233.719 54.9609C233.443 54.8255 233.227 54.5964 233.07 54.2734C232.914 53.9453 232.836 53.5 232.836 52.9375V44.375Z" fill="white"/>
<path d="M242.617 53.4844V49.125C242.617 48.724 242.534 48.3776 242.367 48.0859C242.201 47.7943 241.956 47.5703 241.633 47.4141C241.31 47.2578 240.911 47.1797 240.438 47.1797C240 47.1797 239.609 47.2578 239.266 47.4141C238.927 47.5651 238.659 47.7708 238.461 48.0312C238.268 48.2865 238.172 48.5703 238.172 48.8828L237.234 48.875C237.234 48.5573 237.312 48.25 237.469 47.9531C237.625 47.6562 237.846 47.3906 238.133 47.1562C238.419 46.9219 238.76 46.737 239.156 46.6016C239.557 46.4609 239.997 46.3906 240.477 46.3906C241.081 46.3906 241.612 46.4922 242.07 46.6953C242.534 46.8984 242.896 47.2031 243.156 47.6094C243.417 48.0156 243.547 48.526 243.547 49.1406V53.2266C243.547 53.5182 243.568 53.8203 243.609 54.1328C243.656 54.4453 243.721 54.7031 243.805 54.9062V55H242.812C242.75 54.8125 242.701 54.5781 242.664 54.2969C242.633 54.0104 242.617 53.7396 242.617 53.4844ZM242.836 50.0781L242.852 50.7969H241.016C240.536 50.7969 240.107 50.8411 239.727 50.9297C239.352 51.013 239.034 51.138 238.773 51.3047C238.513 51.4661 238.312 51.6615 238.172 51.8906C238.036 52.1198 237.969 52.3802 237.969 52.6719C237.969 52.974 238.044 53.25 238.195 53.5C238.352 53.75 238.57 53.9505 238.852 54.1016C239.138 54.2474 239.477 54.3203 239.867 54.3203C240.388 54.3203 240.846 54.224 241.242 54.0312C241.643 53.8385 241.974 53.5859 242.234 53.2734C242.495 52.9609 242.669 52.6198 242.758 52.25L243.164 52.7891C243.096 53.0495 242.971 53.3177 242.789 53.5938C242.612 53.8646 242.38 54.1198 242.094 54.3594C241.807 54.5938 241.469 54.7865 241.078 54.9375C240.693 55.0833 240.255 55.1562 239.766 55.1562C239.214 55.1562 238.732 55.0521 238.32 54.8438C237.914 54.6354 237.596 54.3516 237.367 53.9922C237.143 53.6276 237.031 53.2161 237.031 52.7578C237.031 52.3411 237.12 51.9688 237.297 51.6406C237.474 51.3073 237.729 51.026 238.062 50.7969C238.401 50.5625 238.807 50.3854 239.281 50.2656C239.76 50.1406 240.297 50.0781 240.891 50.0781H242.836Z" fill="white"/>
</svg>
